<svg>
    <symbol id="mobile-menu-closed" fill="none" xmlns="http://www.w3.org/2000/svg">
        <path d="M11 10H1C0.734784 10 0.48043 10.1054 0.292893 10.2929C0.105357 10.4804 0 10.7348 0 11C0 11.2652 0.105357 11.5196 0.292893 11.7071C0.48043 11.8946 0.734784 12 1 12H11C11.2652 12 11.5196 11.8946 11.7071 11.7071C11.8946 11.5196 12 11.2652 12 11C12 10.7348 11.8946 10.4804 11.7071 10.2929C11.5196 10.1054 11.2652 10 11 10ZM1 2H19C19.2652 2 19.5196 1.89464 19.7071 1.70711C19.8946 1.51957 20 1.26522 20 1C20 0.734784 19.8946 0.48043 19.7071 0.292893C19.5196 0.105357 19.2652 0 19 0H1C0.734784 0 0.48043 0.105357 0.292893 0.292893C0.105357 0.48043 0 0.734784 0 1C0 1.26522 0.105357 1.51957 0.292893 1.70711C0.48043 1.89464 0.734784 2 1 2ZM19 5H1C0.734784 5 0.48043 5.10536 0.292893 5.29289C0.105357 5.48043 0 5.73478 0 6C0 6.26522 0.105357 6.51957 0.292893 6.70711C0.48043 6.89464 0.734784 7 1 7H19C19.2652 7 19.5196 6.89464 19.7071 6.70711C19.8946 6.51957 20 6.26522 20 6C20 5.73478 19.8946 5.48043 19.7071 5.29289C19.5196 5.10536 19.2652 5 19 5Z" fill="white"/>
    </symbol>

    <symbol id="mobile-menu-opened" fill="none" xmlns="http://www.w3.org/2000/svg">
        <path d="M9.4158 8.00409L15.7158 1.71409C15.9041 1.52579 16.0099 1.27039 16.0099 1.00409C16.0099 0.73779 15.9041 0.482395 15.7158 0.294092C15.5275 0.105788 15.2721 0 15.0058 0C14.7395 0 14.4841 0.105788 14.2958 0.294092L8.0058 6.59409L1.7158 0.294092C1.52749 0.105788 1.2721 2.36434e-07 1.0058 2.38419e-07C0.739497 2.40403e-07 0.484102 0.105788 0.295798 0.294092C0.107495 0.482395 0.00170684 0.73779 0.00170684 1.00409C0.00170684 1.27039 0.107495 1.52579 0.295798 1.71409L6.5958 8.00409L0.295798 14.2941C0.20207 14.3871 0.127676 14.4977 0.0769072 14.6195C0.0261385 14.7414 0 14.8721 0 15.0041C0 15.1361 0.0261385 15.2668 0.0769072 15.3887C0.127676 15.5105 0.20207 15.6211 0.295798 15.7141C0.388761 15.8078 0.499362 15.8822 0.621222 15.933C0.743081 15.9838 0.873786 16.0099 1.0058 16.0099C1.13781 16.0099 1.26852 15.9838 1.39038 15.933C1.51223 15.8822 1.62284 15.8078 1.7158 15.7141L8.0058 9.41409L14.2958 15.7141C14.3888 15.8078 14.4994 15.8822 14.6212 15.933C14.7431 15.9838 14.8738 16.0099 15.0058 16.0099C15.1378 16.0099 15.2685 15.9838 15.3904 15.933C15.5122 15.8822 15.6228 15.8078 15.7158 15.7141C15.8095 15.6211 15.8839 15.5105 15.9347 15.3887C15.9855 15.2668 16.0116 15.1361 16.0116 15.0041C16.0116 14.8721 15.9855 14.7414 15.9347 14.6195C15.8839 14.4977 15.8095 14.3871 15.7158 14.2941L9.4158 8.00409Z" fill="black"/>
    </symbol>

</svg>
