<svg width="41" height="53" viewBox="0 0 41 53" fill="none" xmlns="http://www.w3.org/2000/svg">
<g clip-path="url(#clip0_57_480)">
<path d="M10.2319 48.599L10.2622 48.6738C11.2145 50.9974 13.4415 52.5791 15.9467 52.6149H16.1631C19.8586 52.5064 36.464 54.4807 39.1964 50.4453C43.2565 47.7789 39.1249 23.4577 39.679 19.496C39.8792 14.8617 26.2962 17.8265 24.0237 17.0313C23.2662 13.4103 25.6296 5.11481 19.0978 6.61726C18.5568 -2.28568 7.3361 -2.12513 6.57102 6.61726C4.79091 6.62594 1.83992 6.15947 1.67544 8.69682L0.888724 23.1062C0.665804 26.5005 0.591137 28.3403 0.386613 29.9567C0.0327541 37.3735 -2.1023 39.2437 9.3229 38.9963L9.25364 43.4169C9.22551 45.1929 9.55835 46.9561 10.2319 48.599ZM37.0819 18.767C37.3036 18.7667 37.5171 18.8517 37.6781 19.0045C37.8392 19.1573 37.9357 19.3662 37.9476 19.5882C37.0905 23.0194 40.4365 37.3257 39.1022 45.3554C38.5233 44.8588 37.9051 44.4101 37.2539 44.0135C37.1366 43.9485 37.0014 43.9235 36.8686 43.9422C36.7359 43.961 36.6128 44.0226 36.518 44.1176C36.4232 44.2126 36.3618 44.336 36.3431 44.4691C36.3244 44.6021 36.3493 44.7377 36.4142 44.8553C37.0338 45.7218 37.826 46.4498 38.7408 46.9935C38.6542 47.2885 38.5612 47.5717 38.4551 47.8374C37.2983 46.9262 36.1523 46.002 35.0648 45.0072C34.8299 44.8217 34.5562 44.493 34.2337 44.531C32.3941 44.9562 37.2171 48.6293 37.8956 48.9352C37.7633 49.1487 37.615 49.3518 37.452 49.5427C36.7571 48.8672 35.9758 48.2872 35.1286 47.8179C35.0689 47.8009 35.0055 47.8021 34.9465 47.8214C34.8875 47.8408 34.8356 47.8773 34.7975 47.9264C34.6243 48.1813 34.8678 48.4688 35.0139 48.6857C35.4987 49.2444 35.9272 49.879 36.4607 50.3867C35.6852 50.8485 34.7904 51.0694 33.8896 51.0213C32.3302 50.8336 10.1464 54.6738 10.9732 45.3804L12.3799 19.5817C12.3921 19.3599 12.4887 19.1512 12.6497 18.9987C12.8108 18.8461 13.0241 18.7612 13.2456 18.7616L37.0819 18.767ZM8.52753 5.02586C10.2243 -1.04793 17.6088 0.557574 17.5612 6.61726H8.23752C8.28516 6.07898 8.38225 5.54626 8.52753 5.02586ZM1.56614 35.218C2.07312 34.6855 2.63092 34.2041 3.23155 33.7806C3.2793 33.7306 3.30945 33.6663 3.31742 33.5976C3.3254 33.5288 3.31077 33.4593 3.27574 33.3996C3.24072 33.34 3.18722 33.2934 3.12338 33.267C3.05955 33.2406 2.98886 33.2358 2.92206 33.2534C2.41261 33.4509 1.96452 33.7803 1.6235 34.208L3.40253 8.79662C3.39495 8.01882 5.18373 8.46142 5.59494 8.35294H6.49311C6.50563 8.93415 6.55588 9.51394 6.64353 10.0886C6.27127 10.2134 5.72588 10.4932 5.83193 10.9565C5.86177 11.0589 5.92359 11.1491 6.00832 11.2137C6.09304 11.2783 6.1962 11.314 6.30265 11.3155C6.86645 11.3546 7.40535 11.1365 7.96914 11.1203C8.62226 11.1801 9.27676 11.0214 9.83042 10.669C10.4451 9.71761 8.71365 9.51367 8.099 9.70568C8.12281 9.2544 8.13255 8.80313 8.14229 8.35294H17.5461C17.4824 8.91598 17.5491 9.48614 17.7408 10.0192C17.1413 10.029 16.0592 10.4054 16.7301 10.9955C17.5196 11.2275 18.3454 11.3092 19.1649 11.2363C20.7329 11.3557 20.8011 9.75233 19.1758 9.91071C19.3013 9.42363 18.9972 8.88123 19.0773 8.35294H19.4463C19.864 8.47877 21.8421 8.00038 21.8378 8.78686L22.2923 17.0313C16.6349 17.7549 9.54474 14.0286 10.457 23.1062C10.5771 25.1673 10.365 27.2772 10.1096 29.9578C9.87262 32.4452 9.67676 34.9717 9.21577 36.8701L5.19455 37.176C5.57832 36.8938 5.94008 36.5826 6.27668 36.2453C6.3557 36.1646 6.40286 36.0579 6.40943 35.945C6.41599 35.8321 6.38152 35.7206 6.31239 35.6313C6.24304 35.5424 6.14429 35.4813 6.03396 35.4591C5.92363 35.4368 5.80899 35.4548 5.71073 35.5098C4.83816 35.9223 4.04534 36.4864 3.36898 37.176H2.08449C3.25748 36.3148 4.35382 35.3534 5.3612 34.3024C5.42375 34.2368 5.46103 34.151 5.46638 34.0604C5.47173 33.9698 5.44481 33.8803 5.39041 33.8077C5.33509 33.7354 5.25538 33.6856 5.16616 33.6679C5.07695 33.6501 4.98433 33.6655 4.90562 33.7112C3.70362 34.6234 2.56174 35.6127 1.48715 36.6727L1.56614 35.218Z" fill="white"/>
<path d="M16.4982 25.9874C16.8359 26.1523 17.2146 25.9766 17.5685 25.9549C18.3357 39.9488 32.8872 38.4301 34.0949 25.5861C34.2802 25.5787 34.4564 25.5035 34.5901 25.3746C34.7238 25.2457 34.8056 25.0722 34.8202 24.8868C34.8347 24.7015 34.7809 24.5172 34.669 24.369C34.557 24.2207 34.3947 24.1188 34.2128 24.0825C33.6946 24.0446 33.1736 24.09 32.6697 24.217C32.5959 24.2381 32.527 24.2736 32.4669 24.3215C32.4068 24.3694 32.3568 24.4288 32.3197 24.4961C32.2826 24.5635 32.2591 24.6375 32.2507 24.714C32.2422 24.7904 32.2489 24.8678 32.2704 24.9417C32.2826 24.9861 32.3004 25.0287 32.3234 25.0686C32.4279 25.1888 32.5556 25.2864 32.6988 25.3556C32.8421 25.4247 32.9978 25.464 33.1567 25.4711C32.8773 27.4014 32.013 29.199 30.6807 30.6206C24.8978 37.6197 19.7295 33.2762 18.2968 25.8475C18.5585 25.8325 18.8153 25.7692 19.0542 25.6609C19.1643 25.5927 19.2495 25.4907 19.2971 25.3701C19.3447 25.2494 19.3521 25.1166 19.3183 24.9914C19.2845 24.8662 19.2113 24.7552 19.1095 24.6751C19.0077 24.595 18.8828 24.55 18.7534 24.5468C18.0412 24.6334 17.3344 24.7609 16.6368 24.9287C16.5285 24.9605 16.4317 25.0232 16.3583 25.1092C16.2849 25.1951 16.238 25.3006 16.2234 25.4128C16.2087 25.525 16.2269 25.639 16.2757 25.741C16.3245 25.8431 16.4018 25.9287 16.4982 25.9874ZM38.2849 44.7219L38.3293 44.7566C38.3001 44.7295 38.2589 44.7002 38.2849 44.7219ZM13.2562 45.5539C13.4879 46.2985 13.993 46.927 14.6694 47.3124C15.0611 47.518 15.4943 47.6315 15.9362 47.6442C16.3782 47.657 16.8172 47.5688 17.22 47.3862C17.3047 47.3352 17.3748 47.2631 17.4235 47.1768C17.4722 47.0906 17.4977 46.9933 17.4977 46.8942C17.4977 46.7952 17.4722 46.6978 17.4235 46.6116C17.3748 46.5254 17.3047 46.4533 17.22 46.4023C16.6086 46.0985 15.9215 46.2189 15.2884 45.9748C14.0894 45.4541 14.0418 43.9137 14.0234 42.7866C14.0123 41.9872 14.0528 41.1878 14.1446 40.3936C14.1803 40.0681 13.663 40.0117 13.5862 40.3176C13.2291 42.0132 12.7551 43.8443 13.2616 45.5529L13.2562 45.5539ZM18.9222 47.9806C19.0481 48.1082 19.2088 48.1953 19.3842 48.231C19.5595 48.2667 19.7415 48.2494 19.907 48.1812C20.0724 48.113 20.214 47.9971 20.3136 47.8481C20.4132 47.6991 20.4664 47.5238 20.4664 47.3444C20.4664 47.165 20.4132 46.9897 20.3136 46.8407C20.214 46.6917 20.0724 46.5758 19.907 46.5076C19.7415 46.4394 19.5595 46.4221 19.3842 46.4578C19.2088 46.4935 19.0481 46.5807 18.9222 46.7082C18.7551 46.8775 18.6614 47.1062 18.6614 47.3444C18.6614 47.5826 18.7551 47.8113 18.9222 47.9806Z" fill="white"/>
</g>
<defs>
<clipPath id="clip0_57_480">
<rect width="41" height="53" fill="white"/>
</clipPath>
</defs>
</svg>
