<svg width="161" height="116" viewBox="0 0 161 116" fill="none" xmlns="http://www.w3.org/2000/svg">
<path d="M2.42 94.16L0 99.54H1L1.53 98.29H4.25L4.79 99.54H5.79L3.41 94.16H2.42ZM1.9 97.51L2.9 95.16L3.9 97.51H1.9Z" fill="white"/>
<path d="M10.1999 96.74C10.4396 96.6467 10.6454 96.4828 10.7899 96.27C10.9304 96.0532 11.0003 95.7982 10.9899 95.54C10.9949 95.3451 10.9519 95.152 10.8647 94.9776C10.7775 94.8033 10.6488 94.653 10.4899 94.54C10.0651 94.2762 9.56908 94.1504 9.06992 94.18H6.66992V99.56H9.21992C9.75203 99.5951 10.2813 99.4584 10.7299 99.17C10.9009 99.0435 11.0386 98.8772 11.1309 98.6855C11.2233 98.4939 11.2675 98.2826 11.2599 98.07C11.2723 97.7669 11.1766 97.4692 10.9899 97.23C10.7875 96.9844 10.5099 96.8122 10.1999 96.74ZM7.64992 94.92H8.99992C9.26174 94.9047 9.52145 94.9749 9.73992 95.12C9.81939 95.1922 9.88288 95.2802 9.92634 95.3783C9.96979 95.4765 9.99223 95.5827 9.99223 95.69C9.99223 95.7974 9.96979 95.9035 9.92634 96.0017C9.88288 96.0999 9.81939 96.1879 9.73992 96.26C9.52025 96.4016 9.26063 96.4683 8.99992 96.45H7.64992V94.92ZM9.18992 98.77H7.64992V97.18H9.18992C9.88992 97.18 10.2499 97.45 10.2499 97.97C10.2499 98.49 9.88992 98.77 9.18992 98.77Z" fill="white"/>
<path d="M11.6699 95H13.4499V99.54H14.4399V95H16.2199V94.16H11.6699V95Z" fill="white"/>
<path d="M21 94.44C20.5458 94.1946 20.0361 94.0706 19.52 94.08C19.0009 94.072 18.4882 94.1959 18.03 94.44C17.61 94.6736 17.2637 95.02 17.03 95.44C16.7709 95.8676 16.6391 96.3601 16.65 96.86C16.639 97.3443 16.7585 97.8227 16.996 98.245C17.2336 98.6673 17.5803 99.0178 18 99.26C18.459 99.501 18.9717 99.6214 19.49 99.61C20.0153 99.6276 20.536 99.5069 21 99.26C21.4168 99.0222 21.7622 98.6768 22 98.26C22.2425 97.8242 22.3699 97.3337 22.3699 96.835C22.3699 96.3362 22.2425 95.8457 22 95.41C21.7619 95.001 21.416 94.6655 21 94.44ZM21.16 97.82C21.0011 98.1022 20.7698 98.3369 20.49 98.5C20.191 98.6576 19.858 98.74 19.52 98.74C19.182 98.74 18.849 98.6576 18.55 98.5C18.2673 98.3372 18.0328 98.1026 17.87 97.82C17.7042 97.5132 17.6215 97.1685 17.63 96.82C17.6215 96.4714 17.7042 96.1267 17.87 95.82C18.0302 95.5379 18.2656 95.306 18.55 95.15C18.849 94.9923 19.182 94.9099 19.52 94.9099C19.858 94.9099 20.191 94.9923 20.49 95.15C20.7713 95.3066 21.0034 95.5386 21.16 95.82C21.3334 96.1241 21.4199 96.47 21.41 96.82C21.4159 97.1721 21.3224 97.5187 21.14 97.82H21.16Z" fill="white"/>
<path d="M26.93 94.39C26.5483 94.2258 26.1353 94.1473 25.72 94.16H23.5V99.54H24.5V98H25.72C26.1353 98.0128 26.5483 97.9343 26.93 97.77C27.2589 97.6387 27.5386 97.408 27.73 97.11C27.9144 96.8092 28.0113 96.4629 28.01 96.11C28.0129 95.7569 27.9159 95.4102 27.73 95.11C27.5483 94.7897 27.2676 94.5371 26.93 94.39ZM26.66 96.86C26.3714 97.0711 26.0162 97.1705 25.66 97.14H24.5V95H25.67C26.0262 94.9695 26.3814 95.069 26.67 95.28C26.7771 95.3818 26.8624 95.5044 26.9207 95.6402C26.9789 95.776 27.009 95.9222 27.009 96.07C27.009 96.2178 26.9789 96.3641 26.9207 96.4999C26.8624 96.6357 26.7771 96.7582 26.67 96.86H26.66Z" fill="white"/>
<path d="M30.57 95.2C30.8768 95.0342 31.2215 94.9515 31.57 94.96C31.8412 94.9556 32.1102 95.0095 32.3586 95.1182C32.6071 95.227 32.8293 95.3879 33.01 95.59L33.65 94.98C33.4 94.6879 33.0849 94.4584 32.73 94.31C32.3458 94.1542 31.9346 94.0761 31.52 94.08C31.0073 94.0724 30.5012 94.1964 30.05 94.44C29.6294 94.6729 29.2829 95.0194 29.05 95.44C28.8047 95.8749 28.6758 96.3657 28.6758 96.865C28.6758 97.3643 28.8047 97.8552 29.05 98.29C29.2866 98.7078 29.6323 99.0534 30.05 99.29C30.4648 99.498 30.9187 99.6162 31.3822 99.6369C31.8458 99.6576 32.3084 99.5803 32.74 99.41C33.0968 99.2651 33.4126 99.0351 33.66 98.74L33 98.1C32.8215 98.3056 32.6 98.4695 32.3512 98.5801C32.1023 98.6907 31.8323 98.7453 31.56 98.74C31.2115 98.7486 30.8668 98.6658 30.56 98.5C30.2722 98.3407 30.0336 98.1055 29.87 97.82C29.7015 97.5144 29.6186 97.1689 29.63 96.82C29.6215 96.4715 29.7042 96.1268 29.87 95.82C30.0412 95.5523 30.2836 95.3377 30.57 95.2Z" fill="white"/>
<path d="M41.59 94.16L39.21 99.46L37.36 96.76L39.19 94.16H38.13L36.59 96.41H35.59V94.16H34.59V99.54H35.59V97.27H36.59L38.16 99.54H40.2L40.73 98.29H43.42L44 99.54H45L42.58 94.16H41.59ZM41.07 97.51L42.07 95.16L43.07 97.51H41.07Z" fill="white"/>
<path d="M46.24 94.39C45.9167 94.5317 45.6446 94.769 45.46 95.07C45.2662 95.3888 45.1689 95.757 45.18 96.13C45.1661 96.5169 45.2746 96.8983 45.49 97.22C45.6991 97.5259 46.0004 97.7572 46.35 97.88L45.2 99.54H46.2L47.2 98.04H48.64V99.54H49.64V94.16H47.43C47.0213 94.1482 46.6149 94.2267 46.24 94.39ZM48.69 95V97.22H47.43C47.0974 97.2459 46.7676 97.142 46.51 96.93C46.4009 96.8269 46.3163 96.7005 46.2626 96.5603C46.209 96.4201 46.1876 96.2696 46.2 96.12C46.1857 95.9663 46.2071 95.8114 46.2626 95.6674C46.3182 95.5234 46.4063 95.3942 46.52 95.29C46.7875 95.0819 47.1218 94.9788 47.46 95H48.69Z" fill="white"/>
<path d="M57.9299 94.16H56.8699L55.3199 96.41H54.2899V94.16H53.3099V99.54H54.2899V97.27H55.2899L56.8699 99.54H57.9999L56.0899 96.76L57.9299 94.16Z" fill="white"/>
<path d="M62.38 94.16L60.74 97.32L59.15 94.16H58.08L60.23 98.16L60.14 98.29C60.0633 98.4371 59.9487 98.5611 59.8081 98.649C59.6674 98.7369 59.5058 98.7856 59.34 98.79C59.1624 98.7846 58.9869 98.7508 58.82 98.69L58.57 99.47C58.8213 99.5835 59.0942 99.6415 59.37 99.64C59.6997 99.6437 60.0219 99.5421 60.29 99.35C60.591 99.1273 60.8344 98.8359 61 98.5L63.33 94.16H62.38Z" fill="white"/>
<path d="M68.31 94.16H67.14L65.87 95.95L64.6 94.16H63.45L65.27 96.78L63.33 99.54H64.48L65.87 97.58L67.27 99.54H68.45L66.5 96.74L68.31 94.16Z" fill="white"/>
<path d="M72.9 96.38H70.12V94.16H69.12V99.54H70.12V97.23H72.9V99.54H73.9V94.16H72.9V96.38Z" fill="white"/>
<path d="M76.09 94.3901C75.7687 94.535 75.4973 94.7715 75.31 95.0701C75.1092 95.3873 75.0018 95.7546 75 96.1301C74.9861 96.517 75.0945 96.8984 75.31 97.2201C75.519 97.526 75.8203 97.7573 76.17 97.8801L75.02 99.5401H76.02L77.02 98.0401H78.46V99.5401H79.46V94.1601H77.29C76.8779 94.1471 76.4681 94.2257 76.09 94.3901ZM78.54 95.0001V97.2201H77.28C76.9473 97.246 76.6176 97.1421 76.36 96.9301C76.2508 96.827 76.1663 96.7006 76.1126 96.5604C76.0589 96.4202 76.0375 96.2697 76.05 96.1201C76.04 95.9668 76.0634 95.8132 76.1187 95.6699C76.1739 95.5266 76.2597 95.397 76.37 95.2901C76.6414 95.0822 76.9787 94.9792 77.32 95.0001H78.54Z" fill="white"/>
<path d="M24.53 63.87C24.5149 63.2653 24.4 62.6672 24.19 62.1C23.7448 61.5689 23.1883 61.1422 22.56 60.85C19.935 59.3868 17.0028 58.5612 14 58.44C12.4896 58.3168 10.9699 58.4996 9.53174 58.9772C8.0936 59.4549 6.76656 60.2177 5.62998 61.22C4.5034 62.2342 3.62423 63.4931 3.05998 64.9C2.75154 65.5762 2.60031 66.3135 2.61763 67.0565C2.63494 67.7995 2.82037 68.5289 3.15998 69.19C3.41634 69.7534 3.81214 70.2421 4.30998 70.61C4.79737 70.9708 5.23162 71.3983 5.59998 71.88C5.8952 72.2844 6.03698 72.7806 5.99998 73.28C5.98825 73.622 5.92069 73.9598 5.79998 74.28C5.69877 74.584 5.55753 74.8732 5.37998 75.14C5.22612 75.4241 5.03063 75.6837 4.79998 75.91C4.57115 76.1553 4.32375 76.3827 4.05998 76.59C3.84998 76.76 3.56998 76.97 3.20998 77.21C3.01998 77.34 2.70998 77.53 2.29998 77.77C2.15928 77.8694 2.01231 77.9596 1.85998 78.04C1.69998 78.12 1.53998 78.22 1.38998 78.31L0.499978 78.81C0.368972 78.8631 0.253081 78.9477 0.162562 79.0563C0.0720424 79.1649 0.00968622 79.2941 -0.018988 79.4325C-0.0476622 79.5709 -0.0417701 79.7143 -0.0018333 79.8499C0.0381035 79.9855 0.110853 80.1092 0.209978 80.21C0.599074 80.7586 1.05228 81.2588 1.55998 81.7C2.06104 82.1879 2.61055 82.6235 3.19998 83C3.52018 83.2059 3.88796 83.326 4.26798 83.3488C4.64799 83.3715 5.02748 83.2962 5.36998 83.13C6.53047 82.2493 7.59022 81.2432 8.52998 80.13C9.83998 78.63 10.89 77.46 11.66 76.62C12.1443 76.1668 12.748 75.8615 13.4 75.74C13.7342 75.6627 14.0827 75.6728 14.4119 75.7691C14.7412 75.8654 15.0401 76.0448 15.28 76.29C15.6136 76.7061 15.8511 77.1908 15.9756 77.7094C16.1 78.2281 16.1084 78.7678 16 79.29C15.88 80.73 15.75 81.81 15.61 82.53C15.54 82.97 15.61 83.26 15.77 83.38C16.0143 83.5416 16.2974 83.6348 16.59 83.65C17.0124 83.69 17.4376 83.69 17.86 83.65C18.2395 83.6242 18.6204 83.6242 19 83.65C19.3123 83.6256 19.6229 83.5822 19.93 83.52C20.2374 83.4594 20.5155 83.2974 20.72 83.06C21.4434 81.9986 21.9529 80.8064 22.22 79.55C22.76 77.7033 23.11 76.4233 23.27 75.71C23.27 75.59 23.32 75.46 23.35 75.33C23.38 75.2 23.35 75.06 23.43 74.93C23.79 73.26 24.1 71.45 24.36 69.52C24.6228 67.6485 24.6798 65.7539 24.53 63.87ZM18.09 67.93C18.0503 68.668 17.8157 69.3822 17.41 70C17.0498 70.3828 16.6029 70.6735 16.1069 70.8476C15.6109 71.0216 15.0804 71.0739 14.56 71C13.9422 70.9387 13.328 70.8452 12.72 70.72C12.1255 70.5868 11.5483 70.3855 11 70.12C10.0819 69.7018 9.36399 68.9409 8.99998 68C8.77622 67.5157 8.6914 66.9787 8.75496 66.449C8.81853 65.9193 9.02799 65.4176 9.35998 65C9.82591 64.3973 10.4696 63.9565 11.2 63.74C12.8701 63.2698 14.6469 63.3469 16.27 63.96C16.667 64.1049 17.0275 64.3348 17.3263 64.6336C17.6252 64.9324 17.8551 65.293 18 65.69C18.1934 66.4211 18.2242 67.1857 18.09 67.93Z" fill="white"/>
<path d="M26 80.65C26.0894 81.0597 26.2132 81.4611 26.37 81.85C26.5107 82.2671 26.794 82.6212 27.17 82.85C27.3794 82.9889 27.6043 83.103 27.84 83.19C28.2736 83.3058 28.7214 83.3596 29.17 83.35C29.707 83.3775 30.2447 83.3132 30.76 83.16C30.9392 83.1179 31.0993 83.0175 31.2151 82.8745C31.331 82.7315 31.396 82.554 31.4 82.37C31.3982 82.1536 31.3679 81.9385 31.31 81.73C31.2451 81.5265 31.1916 81.3195 31.15 81.11C30.788 79.2496 30.6371 77.3543 30.7 75.46C30.669 73.7272 30.7425 71.994 30.92 70.27C32.4421 70.2274 33.9653 70.2842 35.48 70.44C37.32 70.6 38.34 70.68 38.54 70.68C39.22 70.74 39.54 70.29 39.54 69.34C39.5935 68.6601 39.4944 67.9768 39.25 67.34C39.0697 67.003 38.7857 66.7331 38.44 66.57C38.1205 66.4017 37.7857 66.2644 37.44 66.16L29.58 66C29.11 66 28.77 66.07 28.58 66.1L28.01 66.21C27.7164 66.3198 27.4598 66.5105 27.27 66.76C26.9905 67.214 26.7688 67.7011 26.61 68.21C26.3309 69.0707 26.1268 69.954 26 70.85C25.8347 72.0005 25.7279 73.1587 25.68 74.32C25.62 75.52 25.62 76.69 25.68 77.82C25.6997 78.7712 25.8068 79.7185 26 80.65Z" fill="white"/>
<path d="M53.6699 80.53C54.1908 79.9568 54.6719 79.3487 55.1099 78.71C55.5599 78.0724 55.92 77.3758 56.1799 76.64C56.5863 75.3482 56.7191 73.9859 56.5699 72.64C56.5261 71.7786 56.3084 70.935 55.9299 70.16C55.581 69.5397 55.1037 69.001 54.5299 68.58C53.968 68.1427 53.3356 67.8045 52.6599 67.58C51.3271 67.2203 49.9227 67.2203 48.5899 67.58C46.9405 68.0196 45.4211 68.8496 44.1599 70L43.5399 70.58C42.6203 71.5053 41.86 72.5765 41.2899 73.75C40.6853 74.9395 40.4059 76.2677 40.4799 77.6C40.5005 78.4879 40.712 79.361 41.0999 80.16C41.4431 80.8977 41.9741 81.5323 42.6399 82C43.3129 82.484 44.0544 82.8649 44.8399 83.13C45.8793 83.4767 46.9774 83.6127 48.0699 83.53C49.1557 83.433 50.2053 83.0911 51.1399 82.53C52.0726 81.9849 52.9243 81.3117 53.6699 80.53ZM51.0899 77.7C50.6406 78.423 49.9659 78.9782 49.1699 79.28C48.6136 79.5997 47.9568 79.697 47.3316 79.5523C46.7065 79.4076 46.1592 79.0316 45.7999 78.5C45.4204 78.0601 45.1568 77.5325 45.0328 76.965C44.9088 76.3975 44.9284 75.808 45.0899 75.25C45.8099 73.0833 47.1133 72.1666 48.9999 72.5C50.8599 72.84 51.7799 73.86 51.7499 75.56C51.7228 76.3191 51.4951 77.0574 51.0899 77.7Z" fill="white"/>
<path d="M75 72.58C74.9461 71.6563 74.7009 70.7539 74.28 69.93C73.8753 69.1676 73.2834 68.5207 72.56 68.05C71.8372 67.591 71.0526 67.2374 70.23 67C69.1457 66.6705 68.0031 66.5784 66.88 66.73C65.7507 66.8784 64.6683 67.2745 63.71 67.89C63.0698 68.3138 62.4676 68.7923 61.91 69.32C61.7771 68.8938 61.6099 68.4791 61.41 68.08C61.2384 67.6659 60.941 67.3161 60.56 67.08C60.2456 66.9269 59.9074 66.8288 59.56 66.79C59.0752 66.7299 58.5848 66.7299 58.1 66.79C57.6524 66.8239 57.2166 66.9499 56.82 67.16C56.656 67.2495 56.5204 67.3831 56.4285 67.5457C56.3366 67.7083 56.2921 67.8934 56.3 68.08C56.3306 68.3114 56.3842 68.5392 56.46 68.76C56.53 69 56.61 69.22 56.69 69.43C57.4068 71.726 57.8466 74.0996 58 76.5C58.1944 80.8318 58.171 85.1706 57.93 89.5C57.87 90.15 57.93 90.58 58.27 90.8C58.6066 91.029 59.0029 91.1541 59.41 91.16C59.7825 91.1945 60.1574 91.1945 60.53 91.16C60.9037 91.1245 61.2688 91.0265 61.61 90.87C61.8845 90.7024 62.1009 90.4546 62.23 90.16C62.41 86.16 62.55 83.97 62.64 83.56L62.87 83.63C64.2727 83.97 65.7433 83.9042 67.11 83.44C68.7973 82.9088 70.3356 81.9872 71.6 80.75C71.79 80.56 72 80.35 72.22 80.11C72.6817 79.6053 73.0968 79.0597 73.46 78.48C73.8368 77.9052 74.171 77.3036 74.46 76.68C74.9822 75.3806 75.1679 73.9703 75 72.58ZM69.69 76.45C69.3662 77.4271 68.6884 78.2476 67.79 78.75C67.077 79.1241 66.2515 79.2237 65.47 79.03C64.6824 78.8129 63.9994 78.3195 63.5458 77.64C63.0923 76.9606 62.8985 76.1406 63 75.33C63.0799 74.5013 63.354 73.7031 63.8 73C64.3339 72.2485 65.1111 71.7045 66 71.46C66.3004 71.3237 66.6248 71.2485 66.9545 71.2387C67.2842 71.2289 67.6126 71.2847 67.9205 71.4029C68.2285 71.521 68.5099 71.6992 68.7484 71.927C68.9869 72.1548 69.1778 72.4278 69.31 72.73C69.6592 73.2774 69.8755 73.8989 69.9415 74.5449C70.0075 75.1909 69.9213 75.8433 69.69 76.45Z" fill="white"/>
<path d="M88.8 80.0001C88.91 80.4501 89.03 80.8601 89.15 81.2401C89.2996 81.6724 89.48 82.0935 89.69 82.5001C89.8836 82.9188 90.2013 83.2679 90.6 83.5001C90.9378 83.6485 91.2945 83.7494 91.66 83.8001C92.1544 83.8921 92.6575 83.929 93.16 83.9101C93.6051 83.9011 94.0439 83.8025 94.45 83.6201C94.6201 83.5423 94.7606 83.4117 94.8506 83.2478C94.9407 83.0839 94.9755 82.8953 94.95 82.7101C94.8999 82.4865 94.8365 82.2661 94.76 82.0501C94.68 81.8201 94.59 81.5901 94.51 81.3701C93.7269 79.1054 93.2166 76.7555 92.99 74.3701C92.7194 71.9499 92.6525 69.5114 92.79 67.0801C92.8417 66.8474 92.834 66.6054 92.7676 66.3764C92.7012 66.1475 92.5782 65.939 92.41 65.7701C92.0585 65.5296 91.6457 65.3943 91.22 65.3801H90.91C90.8546 65.3483 90.7934 65.3279 90.73 65.3201C90.1431 65.2355 89.5443 65.3151 89 65.5501C88.4921 65.7365 88.0264 66.022 87.63 66.3901C87.4884 66.4951 87.3834 66.642 87.33 66.8101C87.2184 67.0504 87.1769 67.3172 87.21 67.5801C87.21 67.8601 87.26 68.1201 87.29 68.3601C87.4287 69.4791 87.4287 70.611 87.29 71.7301C87.1367 73.0634 87.0067 74.1534 86.9 75.0001C86.6793 75.7118 86.3523 76.3861 85.93 77.0001C85.07 78.3001 84.19 79.0001 83.28 79.0001C82.37 79.0001 81.8 78.4301 81.58 77.2701C81.4147 76.0791 81.4147 74.871 81.58 73.6801C81.6712 72.4919 81.896 71.3179 82.25 70.1801C82.32 69.9301 82.45 69.5201 82.65 68.9401C82.85 68.3601 82.87 67.9401 82.73 67.7801C82.2688 67.232 81.6199 66.8755 80.91 66.7801C80.2162 66.6374 79.5076 66.5803 78.8 66.6101C78.4 66.6101 78.0667 66.9001 77.8 67.4801C77.4888 68.1179 77.2506 68.7888 77.09 69.4801C76.91 70.2201 76.76 70.9501 76.65 71.6801C76.54 72.4101 76.47 72.9301 76.44 73.2601C76.2757 74.5007 76.1756 75.7491 76.14 77.0001C76.0996 78.2991 76.4216 79.5837 77.07 80.7101C77.6385 81.69 78.529 82.4427 79.59 82.8401C80.6362 83.2642 81.7624 83.4554 82.89 83.4001C84.2868 83.3433 85.6347 82.8697 86.76 82.0401C87.5463 81.4754 88.2353 80.7864 88.8 80.0001Z" fill="white"/>
<path d="M96.11 85.51C96.11 85.66 96.11 86.07 96.18 86.75L93.44 88.35L91.28 89.61C91.17 89.68 91 89.73 91.04 89.9C91.08 90.07 91.23 90.03 91.34 90.05C91.7219 90.1209 92.0992 90.2144 92.47 90.33C92.7817 90.457 93.1213 90.4999 93.4548 90.4542C93.7883 90.4086 94.1039 90.2761 94.37 90.07C95.28 89.46 96.24 88.94 97.17 88.38L98.43 87.64C98.5087 87.6126 98.5804 87.5682 98.64 87.51C98.6868 87.4644 98.7242 87.41 98.75 87.35C98.994 86.5224 99.4905 85.7917 100.17 85.26C100.771 84.8906 101.465 84.7031 102.17 84.72H103.24C104.24 84.72 105.24 84.72 106.24 84.72L111.04 84.87C112.032 84.8504 113.015 85.0627 113.91 85.49C114.69 85.9811 115.276 86.7265 115.57 87.6C115.61 87.6877 115.673 87.7629 115.752 87.8175C115.831 87.8721 115.924 87.9041 116.02 87.91C116.654 88.03 117.31 87.9423 117.89 87.66C118.21 87.49 118.36 87.33 118.36 87.17C118.36 86.39 118.42 85.77 118.46 85.31C118.479 84.4155 118.445 83.5207 118.36 82.63C118.369 82.48 118.334 82.3307 118.26 82.2C118.22 82.0792 118.17 81.9621 118.11 81.85C117.942 81.4601 117.645 81.1391 117.27 80.94C116.568 80.6678 115.836 80.4798 115.09 80.38C114.888 79.5789 114.728 78.7678 114.61 77.95C114.52 77.36 114.44 76.74 114.38 76.1C114.38 75.63 114.3 75.1 114.27 74.63C114.084 72.2432 114.215 69.8424 114.66 67.49C114.66 67.27 114.75 67.05 114.79 66.81C114.841 66.5802 114.868 66.3455 114.87 66.11C114.861 65.9196 114.791 65.7372 114.67 65.5895C114.55 65.4419 114.385 65.3369 114.2 65.29C113.831 65.1485 113.434 65.0937 113.04 65.13C112.693 65.13 109.993 65.16 104.94 65.22C104.651 65.2133 104.363 65.2401 104.08 65.3C103.81 65.3842 103.549 65.4947 103.3 65.63C103.011 65.7945 102.785 66.0517 102.66 66.36C102.42 66.8815 102.268 67.439 102.21 68.01C102.1 68.78 101.84 70.27 101.45 72.46C101.065 74.6402 100.417 76.7657 99.52 78.79C99.3132 79.4683 98.8922 80.0612 98.32 80.48L97.61 80.65C96.88 80.84 96.46 81.1 96.33 81.44C96.2084 81.76 96.1408 82.0979 96.13 82.44C96.1193 82.5765 96.1193 82.7136 96.13 82.85C96.09 84.06 96.08 84.93 96.11 85.51ZM107 70.16L108.76 69.89C108.97 74.29 109.15 77.34 109.32 79.04C109.32 79.46 109.4 79.79 109.44 80.04C109.294 80.0298 109.147 80.0298 109 80.04C108.55 80.04 108.2 80.04 108 80.04H107.76H106.92H105.92L105 80C105.96 76.7866 106.63 73.4933 107 70.16Z" fill="white"/>
<path d="M119.15 70.49V70.55V70.61V70.66V70.72V70.78H119.22H119.28H119.34H119.4H119.55H119.65H119.75H119.85H120.12H120.21H120.29H120.46H120.54H120.62H120.71H120.81H120.87H120.95L121.03 70.71L121.11 70.65L121.17 70.57V70.5L121.24 70.41V70.33V70.25V70.16V70.06V69.98V69.85V69.75V69.67V69.52L121.3 69.46V69.41H121.36H121.42H121.53H121.61H121.69H121.75H121.86H121.94H122.02H122.11H122.19H122.27H122.38H122.46H122.54H122.73H122.79H122.98H123.06H123.43H123.49H123.59H123.68H123.93H124.01H124.11H124.28H124.35H124.43H124.5H124.55L124.62 69.47L124.71 69.52H124.81L124.89 69.59L124.96 69.65L125.04 69.71L125.1 69.77L125.16 69.84L125.25 69.92L125.31 69.98V70.06L125.37 70.13L125.44 70.21V70.27V70.33V70.43V70.5V70.58V70.66V70.75V70.83V71.35V71.43V71.51V71.61V71.7L125.38 71.8V71.86H125.33H125.28H125.2H125.12H127H126.94H126.87H126.81H126.75H126.68H126.54H126.48H126.42H126.31H126H125.89H125.79H125.71H125.58H125.52L125.42 71.94L125.36 72L125.3 72.09V72.17V72.27V72.35V72.46V72.54V72.6V72.68V72.75V72.81V72.89V72.95V73.03H125.39H125.45H125.53H125.6H125.68H125.78H125.87H125.95H126.01H126.19H126.87H126.93H127.08H127.16H127.29H127.38H127.44H127.51H127.56H127.64L127.73 73.09H127.83L127.91 73.15L128 73.21L128.06 73.29H128.12L128.2 73.37L128.26 73.43L128.33 73.49L128.39 73.56L128.45 73.64V73.7V73.78V73.87V73.93V74.01V74.18V74.26V74.34V74.42V74.51V74.67V74.76V74.84V74.94V75.03V75.11V75.21V75.29V75.35V75.42V75.48V75.56L128.35 75.67L128.3 75.73V75.79H128.24V75.86V75.92H128.18L128.11 75.98L128.05 76.04H127.97L127.86 76.15H127.78H127.7H127.63L127.57 76.2H127.49H127.43H127.37H127.28H127.22H127.16H127.1H126.99H126.93H126.87H126.77H126.71H127H126.94H126.88H126.69H126.61H126.49H126.41H126.3H126.22H126.1H125.99H125.91H125.6H125.5H125.41H125H124.9H124.84H124.75H124.63V80V79.92V79.84V79.74V79.65V79.57L124.57 79.47V79.38L124.5 79.28L124.38 79.11L124.3 79.03L124.21 78.97L124.11 78.89H124.03L123.93 78.83H123.82H123.72H123.57H123H122.87H122.71H122.61H122.46H122.32H122.17L122.03 78.9L121.9 78.98L121.74 79.06L121.57 79.14L121.45 79.27L121.28 79.37L121.14 79.5L120.95 79.64L120.88 79.7V80V80.05V80.15V80.28V80.47V80.65V81V81.11V81.19L120.94 81.26L121.02 81.38L121.1 81.46V81.52H121.16H121.23V81.57H121.29H121.37H121.43H121.49H121.56H121.68H121.74H121.81H121.89H123H123.06H123.17H123.27H123.48H123.6H123.68H123.83H123.91H124.03H124.14H124.26H124.37H124.49H124.59H124.72H124.82H125.28H125.4H126.62H127.06H127.14H127.24H127.3H127.47H127.53H127.6H127.7H127.76H127.83H127.89H127.95H128.02H128.11H128.17H128.23H128.3L133.96 86.01L138.85 89.86C138.98 89.96 139.12 90.15 139.29 90C139.596 89.7327 139.88 89.4418 140.14 89.13C140.26 88.99 140.14 88.84 140.01 88.73C139.66 88.45 139.31 88.15 138.95 87.87L131.21 81.77C130.81 81.44 130.4 81.12 129.99 80.77H130.05H130.1H130.16H130.24V80.72H130.3H130.36H130.42H130.47V80.65H130.53H130.59L130.72 80.52H130.77H132H132.05L132.13 80.44L132.19 80.37L132.25 80.31V79.9V79.84V79.78V79.73L132.3 79.65V79V78.92V78.83V78.77V78.1V78.04V77.63V77.57V77V76.93V76.79V76.71V76.64V76.58V76.52V76.46V76.39V76.33V76.27V76.21V76.16V76.1V76.04L132.25 75.98V75.91V75.83V75.77V75.71H132.19H132.26H132.31V73V72.92V72.6V72.5V72.32V72.26V72V71.3V71.15V71V70.86V70.71V70.65V70.58V70.5V70.1V70.04V69.99V69.93L132.25 69.87L132.16 69.79H132.11V69.74L132.03 69.68H131.97L131.88 69.62H131.82L131.74 69.57L131.66 69.51H131.58H131.51L131.43 69.45H131.37H131.28L131.2 69.39H131.12H131.06L130.97 69.33H130.87L130.81 69.27H130.73L130.64 69.22H130.56H130.5H130.42L130.33 69.16H130.25H130.17H130.08H130.02H129.94H129.86H129.78L130 66H129.92H129.84H129.75H129.69H129.59H129.5H129.42H129.36H129.28H129.2H129.11H129.01H128.93H128.84H128.78H128.7H128.59H128.53H128.43H128.35H128.29H128.2H128.1H127.85H127.77H127.68H127.44H127.35H126.24H126.16H125.91H125.82H125.74H125.49H125.39H125.31H125.25H125.16H125.06H124.97H124.89H124.73H124.64H124.56H124.48H124.38H124.21H124.15H124.04H123.96H123.88H123.79H123.69H123.63H123.55H123.47H123.38H123.3H123.2H123.11H123.05H122.97H122.88H122.8H122.7H122.64H122.54H122.47H122.39L122.31 66.05H122.14L122.06 66.11H121.97L121.89 66.17H121.82H121.77V66.22V66.28V66.34V66.43V66.53V66.58V66.69V66.96V67.27L119.15 70.49Z" fill="white"/>
<path d="M138 79.66C138.52 80.3703 139.151 80.9917 139.87 81.5C140.561 81.9816 141.306 82.381 142.09 82.69C143.086 83.0834 144.133 83.3293 145.2 83.42C145.998 83.4951 146.802 83.4951 147.6 83.42C148.789 83.2692 149.925 82.8335 150.91 82.15C151.548 81.6273 152.128 81.0372 152.64 80.39C153.38 79.52 153.43 78.89 152.81 78.49C151.4 77.49 150.26 77.4 149.37 78.32C148.695 79.1249 147.749 79.6549 146.71 79.81C145.501 79.9158 144.286 79.7092 143.18 79.21C142.641 79.021 142.149 78.7188 141.737 78.3238C141.325 77.9288 141.002 77.4502 140.79 76.92C140.73 76.75 140.68 76.6 140.64 76.46C147.307 75.7 150.947 75.24 151.56 75.08C151.85 74.9989 152.117 74.8495 152.338 74.6442C152.559 74.4389 152.728 74.1838 152.83 73.9C153.065 72.8017 152.992 71.6597 152.62 70.6C152.422 69.8131 152.05 69.0809 151.531 68.4576C151.011 67.8344 150.358 67.3362 149.62 67C148.184 66.1779 146.526 65.828 144.88 66C143.513 66.1812 142.171 66.5166 140.88 67C139.761 67.4266 138.74 68.0765 137.88 68.91C137.016 69.6845 136.383 70.683 136.051 71.7948C135.72 72.9067 135.702 74.0887 136 75.21C136.329 76.8231 137.012 78.343 138 79.66ZM140.85 73C140.991 72.5487 141.231 72.1348 141.553 71.7887C141.875 71.4425 142.27 71.173 142.71 71C143.858 70.645 145.049 70.4466 146.25 70.41C146.896 70.3129 147.555 70.4344 148.124 70.755C148.693 71.0757 149.139 71.5772 149.39 72.18L140.75 73.18C140.779 73.1179 140.813 73.0578 140.85 73Z" fill="white"/>
<path d="M140.81 102.52C139.563 101.187 138.317 99.8534 137.07 98.5201C136.79 98.2001 136.56 98.1001 136.19 98.4201C135.764 98.7588 135.308 99.0599 134.83 99.3201C132.8 100.537 130.64 101.523 128.39 102.26C126.417 102.903 124.371 103.296 122.3 103.43C119.749 103.584 117.188 103.365 114.7 102.78C111.838 102.02 109.076 100.926 106.47 99.5201C104.15 98.3334 101.817 97.1767 99.47 96.0501C99.317 95.9436 99.1298 95.8979 98.9449 95.9219C98.76 95.9459 98.5907 96.038 98.47 96.1801C97.95 96.7401 97.38 97.2501 96.81 97.7701C96.24 98.2901 96.33 98.2201 96.81 98.6001C98.35 99.7001 99.89 100.79 101.42 101.9C104.56 104.173 107.773 106.347 111.06 108.42C113.573 110.014 116.204 111.415 118.93 112.61C120.619 113.339 122.348 113.97 124.11 114.5C126.074 115.092 128.079 115.533 130.11 115.82C131.294 115.965 132.488 116.015 133.68 115.97C135.108 115.97 136.534 115.88 137.95 115.7C139.46 115.449 140.956 115.115 142.43 114.7C144.701 114.055 146.902 113.184 149 112.1C149.36 111.92 149.43 111.75 149.12 111.42L140.81 102.52Z" fill="white"/>
<path d="M160.39 101.48C160.188 101.006 159.888 100.58 159.51 100.23C159.21 99.91 158.87 99.63 158.56 99.23L155 95.61C154.803 95.5149 154.632 95.3743 154.5 95.2L148.82 89.52C148.602 89.2565 148.326 89.0464 148.014 88.906C147.702 88.7656 147.362 88.6986 147.02 88.71C146.714 88.7469 146.419 88.8458 146.152 89.0005C145.886 89.1553 145.654 89.3626 145.47 89.61C144.085 91.3949 142.56 93.0669 140.91 94.61C140.303 95.1962 139.665 95.7503 139 96.27C138.28 96.83 138.25 96.83 138.89 97.51L139.13 97.78L145.63 104.84C147.36 106.7 149.11 108.53 150.81 110.41C151.14 110.78 151.35 110.8 151.73 110.56C154.731 108.719 157.43 106.426 159.73 103.76C160.035 103.475 160.257 103.112 160.374 102.711C160.49 102.309 160.495 101.884 160.39 101.48Z" fill="white"/>
<path d="M96.7199 94.87C96.6684 94.8209 96.6071 94.7834 96.5399 94.76L95.8599 94.5L95.4299 94.34C94.9999 94.18 94.4299 93.99 93.8499 93.8C93.4399 93.67 92.9899 93.53 92.4999 93.4C91.5999 93.15 90.5599 92.9 89.3999 92.68C88.5199 92.5 87.5599 92.35 86.5399 92.21H86.3299C85.9399 92.21 85.6999 92.4 85.6599 92.84C85.635 93.1962 85.635 93.5537 85.6599 93.91C85.6504 94.0265 85.6686 94.1437 85.7131 94.2518C85.7576 94.36 85.8271 94.4561 85.9159 94.5322C86.0047 94.6083 86.1103 94.6623 86.2239 94.6897C86.3376 94.7171 86.4562 94.7172 86.5699 94.69C86.8028 94.67 87.037 94.67 87.2699 94.69H87.3299C88.5445 94.8215 89.7477 95.0421 90.9299 95.35C91.3699 95.47 91.7999 95.6 92.2299 95.75H92.2899C92.9877 96.0491 93.6571 96.4105 94.2899 96.83L94.4799 96.92C94.5727 96.9477 94.6716 96.9472 94.7642 96.9188C94.8567 96.8903 94.9388 96.835 94.9999 96.76C95.5399 96.22 96.1099 95.7 96.6699 95.18C96.7799 95.06 96.7999 95 96.7199 94.87Z" fill="white"/>
<path d="M77.74 38.48C77.1503 38.4863 76.5672 38.3559 76.0363 38.0992C75.5054 37.8424 75.0412 37.4662 74.68 37V39.94C74.6809 40.2804 74.7641 40.6155 74.9226 40.9168C75.081 41.218 75.31 41.4765 75.59 41.67L80.72 45.3C80.8722 45.4163 81.016 45.5433 81.15 45.68V36.45C80.8161 37.0633 80.3233 37.5754 79.7233 37.9326C79.1233 38.2898 78.4383 38.4789 77.74 38.48ZM79.84 43.34C79.7074 43.34 79.5802 43.2874 79.4865 43.1936C79.3927 43.0998 79.34 42.9727 79.34 42.84C79.34 42.7074 79.3927 42.5803 79.4865 42.4865C79.5802 42.3927 79.7074 42.34 79.84 42.34C79.9726 42.34 80.0998 42.3927 80.1936 42.4865C80.2873 42.5803 80.34 42.7074 80.34 42.84C80.34 42.9727 80.2873 43.0998 80.1936 43.1936C80.0998 43.2874 79.9726 43.34 79.84 43.34ZM79.84 41.53C79.7074 41.53 79.5802 41.4774 79.4865 41.3836C79.3927 41.2898 79.34 41.1627 79.34 41.03C79.34 40.8974 79.3927 40.7703 79.4865 40.6765C79.5802 40.5827 79.7074 40.53 79.84 40.53C79.9726 40.53 80.0998 40.5827 80.1936 40.6765C80.2873 40.7703 80.34 40.8974 80.34 41.03C80.34 41.1627 80.2873 41.2898 80.1936 41.3836C80.0998 41.4774 79.9726 41.53 79.84 41.53ZM79.84 39.71C79.7074 39.71 79.5802 39.6574 79.4865 39.5636C79.3927 39.4698 79.34 39.3427 79.34 39.21C79.34 39.0774 79.3927 38.9503 79.4865 38.8565C79.5802 38.7627 79.7074 38.71 79.84 38.71C79.9726 38.71 80.0998 38.7627 80.1936 38.8565C80.2873 38.9503 80.34 39.0774 80.34 39.21C80.34 39.3427 80.2873 39.4698 80.1936 39.5636C80.0998 39.6574 79.9726 39.71 79.84 39.71ZM81.95 26.71V51.8H87.95C88.4078 51.8001 88.8612 51.7097 89.284 51.5342C89.7069 51.3587 90.091 51.1015 90.4143 50.7772C90.7376 50.453 90.9937 50.0682 91.168 49.6449C91.3423 49.2215 91.4313 48.7679 91.43 48.3101V36.4901C91.429 33.9575 90.4457 31.524 88.6869 29.7018C86.9281 27.8796 84.5309 26.8107 82 26.72L81.95 26.71ZM84.45 38.19H84V37.6H84.46L84.45 38.19ZM84.45 37.38H84V35H84.46L84.45 37.38ZM84.45 34.8H84V34.2201H84.46L84.45 34.8ZM85.28 38.19H84.81V37.6H85.28V38.19ZM85.28 37.38H84.81V35H85.28V37.38ZM85.28 34.8H84.81V34.2201H85.28V34.8ZM86.12 38.19H85.66V37.6H86.12V38.19ZM86.12 37.38H85.66V35H86.12V37.38ZM86.12 34.8H85.66V34.2201H86.12V34.8ZM87 38.2H86.5V37.61H87V38.2ZM87 37.39H86.5V35H87V37.39ZM87 34.8101H86.5V34.23H87V34.8101ZM87.84 38.2H87.38V37.61H87.84V38.2ZM87.84 37.39H87.38V35H87.84V37.39ZM87.84 34.8101H87.38V34.23H87.84V34.8101ZM80.26 45.92L75.12 42.27C74.735 42.0037 74.4202 41.6481 74.2026 41.2336C73.9849 40.8192 73.8708 40.3582 73.87 39.89V34.8101C73.87 34.7401 73.87 34.65 73.87 34.57V26.67C72.5762 26.6635 71.2939 26.9126 70.0967 27.4032C68.8995 27.8937 67.811 28.616 66.8939 29.5285C65.9767 30.441 65.2489 31.5258 64.7523 32.7205C64.2556 33.9152 64 35.1963 64 36.4901V48.3101C64 49.2357 64.3677 50.1233 65.0222 50.7779C65.6767 51.4324 66.5644 51.8 67.49 51.8H81.15V47.6501C81.1539 47.311 81.0749 46.9761 80.9197 46.6746C80.7646 46.3731 80.5381 46.114 80.26 45.92ZM68.17 38.2H67.71V37.61H68.17V38.2ZM68.17 37.39H67.71V35H68.17V37.39ZM68.17 34.8101H67.71V34.23H68.17V34.8101ZM69 38.2H68.53V37.61H69V38.2ZM69 37.39H68.53V35H69V37.39ZM69 34.8101H68.53V34.23H69V34.8101ZM69.84 38.2H69.38V37.61H69.84V38.2ZM69.84 37.39H69.38V35H69.84V37.39ZM69.84 34.8101H69.38V34.23H69.84V34.8101ZM70.67 38.2H70.21V37.61H70.67V38.2ZM70.67 37.39H70.21V35H70.67V37.39ZM70.67 34.8101H70.21V34.23H70.67V34.8101ZM71.52 38.2H71.05V37.61H71.52V38.2ZM71.52 37.39H71.05V35H71.52V37.39ZM71.52 34.8101H71.05V34.23H71.52V34.8101Z" fill="#8BC43F"/>
<path d="M67.9 14.41C68.33 13.93 68.33 13.93 67.77 13.48C67.8965 13.4178 68.0039 13.3228 68.0813 13.205C68.1587 13.0872 68.2031 12.9508 68.21 12.81C68.216 12.6063 68.1855 12.4031 68.12 12.21C68.0731 12.0319 68.0762 11.8442 68.1292 11.6678C68.1821 11.4913 68.2828 11.3329 68.42 11.21C68.55 11.1086 68.6446 10.9686 68.69 10.81C68.69 10.69 68.69 10.54 68.69 10.46C68.69 10.38 68.59 10.19 68.69 10.05C68.7945 9.91796 68.864 9.76164 68.892 9.59557C68.9199 9.42949 68.9055 9.25904 68.85 9.10003C68.7901 8.9422 68.7901 8.76786 68.85 8.61003C68.93 8.45003 68.99 8.28003 69.08 8.12003C69.17 7.96003 69.25 7.75003 69.08 7.59003C68.91 7.43003 69.02 7.45003 69.08 7.38003C69.5049 6.94465 69.7541 6.36781 69.78 5.76003C69.7849 5.69601 69.8055 5.63418 69.84 5.58003C69.9257 5.46176 69.9844 5.32616 70.012 5.18277C70.0397 5.03937 70.0356 4.89167 70 4.75003C69.9768 4.6999 69.9647 4.6453 69.9647 4.59003C69.9647 4.53476 69.9768 4.48016 70 4.43003L71 2.97003C71.23 2.66003 71.23 2.66003 70.86 2.49003C71.3769 2.25725 71.8172 1.88279 72.13 1.41003C72.3866 1.18859 72.6815 1.01577 73 0.90003L73.47 0.61003C73.52 0.61003 73.58 0.61003 73.59 0.52003C73.66 0.20003 73.94 0.25003 74.16 0.19003C75.3147 -0.061887 76.5197 0.0607103 77.6 0.54003C77.9787 0.705319 78.3941 0.768299 78.8048 0.722672C79.2154 0.677045 79.6069 0.52441 79.94 0.28003C80.07 0.19003 80.08 0.20003 80.16 0.47003H80.24C80.3245 0.380495 80.43 0.313445 80.5469 0.274953C80.6638 0.236461 80.7885 0.227742 80.9096 0.249587C81.0308 0.271432 81.1445 0.323149 81.2406 0.400056C81.3367 0.476963 81.4121 0.57663 81.46 0.69003C81.4731 0.720303 81.492 0.747697 81.5156 0.770635C81.5393 0.793573 81.5673 0.811602 81.598 0.823684C81.6286 0.835767 81.6614 0.841664 81.6944 0.841037C81.7273 0.84041 81.7598 0.83327 81.79 0.82003L82.69 0.59003C82.84 0.59003 82.9 0.59003 82.9 0.75003C82.9 0.91003 82.9 1.08003 82.9 1.24003C82.9 1.40003 82.98 1.56003 83.19 1.59003C83.4 1.62003 83.51 1.66003 83.34 1.94003C83.3419 1.96666 83.3419 1.9934 83.34 2.02003C83.23 2.19003 83.34 2.24003 83.47 2.24003C83.6655 2.22238 83.8622 2.25688 84.04 2.34003C84.1 2.34003 84.2 2.34003 84.21 2.46003C84.22 2.58003 84.11 2.54003 84.06 2.59003L83.97 2.67003C84.2381 2.75997 84.4988 2.87029 84.75 3.00003C84.9251 3.11882 85.0922 3.24911 85.25 3.39003C85.25 3.39003 85.36 3.47003 85.35 3.54003C85.34 3.61003 85.24 3.61003 85.18 3.63003H84.85C85.393 3.92466 85.8039 4.41426 86 5.00003C86.179 5.34512 86.4442 5.63797 86.77 5.85003C87.03 6.01003 87.27 6.20003 87.05 6.56003C87.05 6.64003 87.05 6.68003 87.13 6.72003C87.2032 6.76895 87.2649 6.83314 87.311 6.90817C87.357 6.98321 87.3862 7.06732 87.3967 7.15472C87.4071 7.24213 87.3985 7.33076 87.3715 7.41453C87.3445 7.4983 87.2996 7.57523 87.24 7.64003C87.24 7.74003 87.18 7.80003 87.24 7.88003C87.3 7.96003 87.45 8.11003 87.55 8.23003C87.65 8.35003 87.64 8.31003 87.61 8.37003C87.58 8.43003 87.52 8.42003 87.48 8.42003C87.3268 8.42949 87.1732 8.42949 87.02 8.42003C86.81 8.42003 86.8 8.51003 86.89 8.66003C86.9227 8.7353 86.9594 8.80875 87 8.88003C87.3692 9.48863 87.5981 10.1719 87.67 10.88C87.67 11.08 87.67 11.2 87.44 11.23C87.21 11.26 87.24 11.3 87.38 11.43C87.4342 11.4734 87.4764 11.5299 87.5028 11.5941C87.5292 11.6583 87.5388 11.7282 87.5309 11.7972C87.5229 11.8661 87.4975 11.9319 87.4571 11.9884C87.4167 12.0449 87.3627 12.0902 87.3 12.12C87.2 12.19 87.18 12.22 87.3 12.32C87.4258 12.4531 87.5008 12.6263 87.5118 12.8091C87.5228 12.992 87.469 13.1728 87.36 13.32C87.36 13.39 87.3 13.44 87.36 13.51C87.4209 13.5766 87.4657 13.6562 87.491 13.7427C87.5163 13.8293 87.5214 13.9205 87.5059 14.0093C87.4905 14.0982 87.4549 14.1823 87.4018 14.2552C87.3488 14.3281 87.2798 14.3879 87.2 14.43C86.9601 14.5464 86.7459 14.7096 86.57 14.91C86.5066 15.0473 86.396 15.1571 86.2583 15.2195C86.1206 15.2819 85.965 15.2928 85.82 15.25C85.65 15.2 85.59 15.34 85.57 15.48C85.55 15.62 85.44 15.78 85.23 15.8L83.73 15.97C83.58 15.97 83.44 15.97 83.39 16.19C83.34 16.41 83.22 16.33 83.11 16.35C81.83 16.55 80.55 16.76 79.26 16.95C78.2687 17.1152 77.265 17.1954 76.26 17.19C74.6472 17.1599 73.0578 16.7991 71.59 16.13C71.1103 15.8718 70.5748 15.7345 70.03 15.73C69.9507 15.7154 69.8694 15.7154 69.79 15.73C69.66 15.73 69.59 15.73 69.56 15.6C69.53 15.47 69.4 15.22 69.13 15.26C69.1054 15.266 69.0798 15.2664 69.0551 15.2612C69.0303 15.256 69.007 15.2454 68.9869 15.23C68.9668 15.2147 68.9503 15.1951 68.9388 15.1726C68.9272 15.1501 68.9208 15.1253 68.92 15.1C68.92 14.87 68.74 14.86 68.57 14.87C68.4 14.88 68.2 14.87 68.2 14.59C68.2 14.31 68 14.53 67.9 14.41Z" fill="#8BC43F"/>
<path d="M72 24C72.0912 23.6595 72.2048 23.3255 72.34 23C72.8486 22.0747 73.6279 21.327 74.5733 20.8569C75.5188 20.3869 76.5853 20.217 77.63 20.37C78.19 20.46 78.79 20.32 79.35 20.37C80.1882 20.4457 80.9914 20.7419 81.6781 21.2284C82.3648 21.7149 82.9106 22.3744 83.26 23.14C83.3569 23.4126 83.4272 23.6939 83.47 23.98C82.64 23.76 81.89 23.51 81.11 23.38C80.53 23.27 79.89 23.38 79.33 23.27C78.3082 22.9949 77.2318 22.9949 76.21 23.27C75.4947 23.3839 74.7736 23.4573 74.05 23.49C73.4 23.64 72.75 23.84 72 24Z" fill="#8BC43F"/>
<path d="M50.8399 26.67V28.77C50.8401 29.4759 50.5639 30.1537 50.0704 30.6583C49.577 31.163 48.9056 31.4544 48.1999 31.47C47.8332 31.4701 47.47 31.3975 47.1314 31.2565C46.7928 31.1156 46.4855 30.909 46.2271 30.6487C45.9687 30.3885 45.7643 30.0796 45.6258 29.74C45.4872 29.4005 45.4173 29.0368 45.4199 28.67V26.67C42.5025 26.67 39.7047 27.829 37.6418 29.8919C35.5789 31.9548 34.4199 34.7527 34.4199 37.67V48.32C34.4199 49.243 34.7866 50.1281 35.4392 50.7808C36.0918 51.4334 36.977 51.8 37.8999 51.8L39.1499 51.32C39.1254 51.0569 39.1774 50.7923 39.2999 50.5581C39.4223 50.3239 39.6098 50.1301 39.8399 50L40.8399 49.39L40.9799 49.31C41.1729 49.1902 41.3931 49.1214 41.6199 49.11H41.6799C41.9124 49.1057 42.1401 49.1758 42.3299 49.31C42.381 49.3446 42.428 49.3848 42.4699 49.43C42.6171 49.0019 42.8974 48.6321 43.2699 48.3748C43.6423 48.1175 44.0874 47.9861 44.5399 48C44.656 47.9986 44.7713 48.019 44.8799 48.06H44.9999C45.1158 48.0613 45.2306 48.0816 45.3399 48.12L45.6399 48.23C45.6298 48.1738 45.6298 48.1163 45.6399 48.06C45.8071 47.6276 46.1274 47.2717 46.5399 47.06C46.8577 46.9075 47.1938 46.7966 47.5399 46.73C47.7816 46.6684 48.0307 46.6415 48.2799 46.65C48.4051 46.667 48.5266 46.7042 48.6399 46.76C48.7399 46.5149 48.8961 46.2968 49.0958 46.1231C49.2956 45.9494 49.5333 45.825 49.7899 45.76C49.9098 45.7211 50.0341 45.6975 50.1599 45.69H50.3099C50.3963 45.6797 50.4836 45.6797 50.5699 45.69H50.6499C50.7562 45.6765 50.8637 45.6765 50.9699 45.69C51.3804 45.7879 51.7612 45.9834 52.0799 46.26L52.5499 46.09C52.6565 46.0413 52.7669 46.0011 52.8799 45.97L53.3999 45.77C53.6818 45.5946 53.9998 45.4852 54.3299 45.45C54.655 45.2278 55.0289 45.0871 55.4199 45.04C55.5665 44.9362 55.7241 44.849 55.8899 44.78C56.0584 44.2798 56.4179 43.8664 56.8899 43.63C57.1938 43.4538 57.5387 43.3607 57.8899 43.36C58.3007 43.3621 58.7013 43.4875 59.0399 43.72C59.3943 43.9622 59.6498 44.3237 59.7599 44.7385C59.8701 45.1534 59.8275 45.594 59.6399 45.98C59.4719 46.3471 59.2012 46.6576 58.8604 46.8741C58.5197 47.0906 58.1236 47.2038 57.7199 47.2H57.4699C57.2023 47.1687 56.9438 47.0837 56.7099 46.95C56.5378 47.0079 56.3602 47.0481 56.1799 47.07L56.0499 47.16C55.7439 47.3383 55.4026 47.4475 55.0499 47.48C54.7565 47.6953 54.4116 47.8298 54.0499 47.87L53.5499 48.06L53.3099 48.16C53.2631 48.1896 53.2127 48.2131 53.1599 48.23L52.8199 48.36L52.5599 48.46C52.5552 48.4798 52.5552 48.5003 52.5599 48.52C52.5221 48.6448 52.4719 48.7654 52.4099 48.88C52.417 48.9666 52.417 49.0535 52.4099 49.14C52.4092 49.4231 52.3084 49.6967 52.1254 49.9127C51.9424 50.1286 51.689 50.2729 51.4099 50.32C51.0796 50.3772 50.7451 50.4073 50.4099 50.41C50.1036 50.4122 49.805 50.3139 49.5599 50.13C49.4707 50.5257 49.2483 50.8787 48.9299 51.13C48.8281 51.2102 48.7212 51.2837 48.6099 51.35C48.5126 51.409 48.4085 51.4561 48.2999 51.49C48.2273 51.5346 48.1502 51.5714 48.0699 51.6H58.1699C59.0929 51.6 59.978 51.2334 60.6307 50.5808C61.2833 49.9281 61.6499 49.043 61.6499 48.12V37.68C61.653 34.7936 60.5213 32.0215 58.4991 29.9618C56.4768 27.9022 53.726 26.7199 50.8399 26.67ZM38.5499 38.2H38.0899V37.61H38.5499V38.2ZM38.5499 37.4H38.0899V35H38.5499V37.4ZM38.5499 34.81H38.0899V34.23H38.5499V34.81ZM39.3999 38.2H38.9299V37.61H39.3999V38.2ZM39.3999 37.4H38.9299V35H39.3999V37.4ZM39.3999 34.81H38.9299V34.23H39.3999V34.81ZM40.2199 38.2H39.7599V37.61H40.2199V38.2ZM40.2199 37.4H39.7599V35H40.2199V37.4ZM40.2199 34.81H39.7599V34.23H40.2199V34.81ZM41.0699 38.2H40.6099V37.61H41.0699V38.2ZM41.0699 37.4H40.6099V35H41.0699V37.4ZM41.0699 34.81H40.6099V34.23H41.0699V34.81ZM41.8999 38.2H41.4299V37.61H41.8999V38.2ZM41.8999 37.4H41.4299V35H41.8999V37.4ZM41.8999 34.81H41.4299V34.23H41.8999V34.81ZM48.1299 33.23C48.2763 33.23 48.4194 33.2734 48.541 33.3548C48.6627 33.4361 48.7576 33.5516 48.8136 33.6869C48.8696 33.8221 48.8843 33.9709 48.8557 34.1144C48.8272 34.258 48.7567 34.3898 48.6532 34.4933C48.5497 34.5968 48.4178 34.6673 48.2743 34.6958C48.1307 34.7244 47.982 34.7097 47.8467 34.6537C47.7115 34.5977 47.5959 34.5029 47.5146 34.3812C47.4333 34.2595 47.3899 34.1164 47.3899 33.97C47.3899 33.8729 47.4091 33.7766 47.4463 33.6869C47.4834 33.5971 47.538 33.5155 47.6067 33.4468C47.6754 33.3781 47.757 33.3236 47.8467 33.2864C47.9365 33.2492 48.0327 33.23 48.1299 33.23ZM48.1299 36.23C48.2763 36.23 48.4194 36.2734 48.541 36.3548C48.6627 36.4361 48.7576 36.5516 48.8136 36.6869C48.8696 36.8221 48.8843 36.9709 48.8557 37.1144C48.8272 37.258 48.7567 37.3898 48.6532 37.4933C48.5497 37.5968 48.4178 37.6673 48.2743 37.6958C48.1307 37.7244 47.982 37.7097 47.8467 37.6537C47.7115 37.5977 47.5959 37.5029 47.5146 37.3812C47.4333 37.2595 47.3899 37.1164 47.3899 36.97C47.3899 36.8729 47.4091 36.7766 47.4463 36.6869C47.4834 36.5971 47.538 36.5155 47.6067 36.4468C47.6754 36.3781 47.757 36.3236 47.8467 36.2864C47.9365 36.2492 48.0327 36.23 48.1299 36.23ZM48.1299 39.23C48.2763 39.23 48.4194 39.2734 48.541 39.3548C48.6627 39.4361 48.7576 39.5516 48.8136 39.6869C48.8696 39.8221 48.8843 39.9709 48.8557 40.1144C48.8272 40.258 48.7567 40.3898 48.6532 40.4933C48.5497 40.5968 48.4178 40.6673 48.2743 40.6958C48.1307 40.7244 47.982 40.7097 47.8467 40.6537C47.7115 40.5977 47.5959 40.5029 47.5146 40.3812C47.4333 40.2595 47.3899 40.1164 47.3899 39.97C47.3899 39.8729 47.4091 39.7766 47.4463 39.6869C47.4834 39.5971 47.538 39.5155 47.6067 39.4468C47.6754 39.3781 47.757 39.3236 47.8467 39.2864C47.9365 39.2492 48.0327 39.23 48.1299 39.23ZM48.1299 42.23C48.2763 42.23 48.4194 42.2734 48.541 42.3548C48.6627 42.4361 48.7576 42.5516 48.8136 42.6869C48.8696 42.8221 48.8843 42.9709 48.8557 43.1144C48.8272 43.258 48.7567 43.3898 48.6532 43.4933C48.5497 43.5968 48.4178 43.6673 48.2743 43.6958C48.1307 43.7244 47.982 43.7097 47.8467 43.6537C47.7115 43.5977 47.5959 43.5029 47.5146 43.3812C47.4333 43.2595 47.3899 43.1164 47.3899 42.97C47.3899 42.8729 47.4091 42.7766 47.4463 42.6869C47.4834 42.5971 47.538 42.5155 47.6067 42.4468C47.6754 42.3781 47.757 42.3236 47.8467 42.2864C47.9365 42.2492 48.0327 42.23 48.1299 42.23ZM54.8299 38.23H54.3699V37.64H54.8299V38.23ZM54.8299 37.43H54.3699V35H54.8299V37.43ZM54.8299 34.84H54.3699V34.26H54.8299V34.84ZM55.6799 38.23H55.2099V37.64H55.6799V38.23ZM55.6799 37.43H55.2099V35H55.6799V37.43ZM55.6799 34.84H55.2099V34.26H55.6799V34.84ZM56.4999 38.23H55.9999V37.64H56.4599L56.4999 38.23ZM56.4999 37.43H55.9999V35H56.4599L56.4999 37.43ZM56.4999 34.84H55.9999V34.26H56.4599L56.4999 34.84ZM57.3499 38.23H56.8799V37.64H57.3499V38.23ZM57.3499 37.43H56.8799V35H57.3499V37.43ZM57.3499 34.84H56.8799V34.26H57.3499V34.84ZM58.1699 38.23H57.7099V37.64H58.1699V38.23ZM58.1699 37.43H57.7099V35H58.1699V37.43ZM58.1699 34.84H57.7099V34.26H58.1699V34.84Z" fill="#D20000"/>
<path d="M50.3399 21.5501C49.7045 21.1911 48.9897 20.9959 48.26 20.9819C47.5303 20.9679 46.8086 21.1357 46.1599 21.4701C45.4996 21.9232 44.7008 22.1295 43.9036 22.0527C43.1064 21.9759 42.3616 21.6209 41.7999 21.0501C41.7999 21.4701 41.8499 21.7401 41.8899 22.0501C41.9143 22.748 42.2004 23.4111 42.6914 23.9077C43.1824 24.4042 43.8423 24.6978 44.5399 24.7301C45.6668 24.8718 46.8099 24.6586 47.8099 24.1201C47.9218 24.0707 48.0427 24.0453 48.1649 24.0453C48.2872 24.0453 48.4081 24.0707 48.5199 24.1201C49.669 24.7427 51.005 24.9274 52.2799 24.6401C53.0059 24.462 53.6329 24.0058 54.0257 23.3698C54.4185 22.7338 54.5457 21.969 54.3799 21.2401C53.8377 21.7351 53.1454 22.0346 52.4133 22.0908C51.6812 22.147 50.9514 21.9566 50.3399 21.5501Z" fill="#D20000"/>
<path d="M37.79 10.13C37.45 10.75 37.51 11.05 38.15 11.48C38.0125 11.6104 37.9044 11.7688 37.8331 11.9444C37.7617 12.12 37.7287 12.3088 37.7363 12.4982C37.7439 12.6875 37.7918 12.8731 37.877 13.0425C37.9621 13.2118 38.0825 13.361 38.23 13.48C38 13.9655 37.8256 14.4754 37.71 15C37.6948 15.1362 37.7077 15.274 37.748 15.4049C37.7882 15.5359 37.855 15.6571 37.9441 15.7612C38.0331 15.8653 38.1426 15.9499 38.2658 16.0099C38.3889 16.0699 38.5231 16.104 38.66 16.11C38.25 17.11 38.31 17.76 38.86 18.18C38.9276 18.2476 39.0096 18.2989 39.1 18.33C39.2898 18.429 39.5008 18.4807 39.715 18.4807C39.9291 18.4807 40.1401 18.429 40.33 18.33H41.2C41.2923 18.4782 41.4183 18.6026 41.5677 18.6929C41.7172 18.7833 41.8858 18.8371 42.06 18.85C42.2854 18.8642 42.5109 18.8245 42.7179 18.734C42.9249 18.6436 43.1073 18.5051 43.25 18.33C43.65 18.47 44 18.73 44.25 18.69C44.5285 18.6328 44.7892 18.5093 45.01 18.33H45.32C45.86 19.25 46.65 19.27 47.53 18.33H47.61C47.7477 18.5688 47.9459 18.7672 48.1847 18.9051C48.4234 19.043 48.6943 19.1156 48.97 19.1156C49.2457 19.1156 49.5165 19.043 49.7553 18.9051C49.994 18.7672 50.1922 18.5688 50.33 18.33H50.82C50.9589 18.5368 51.1487 18.7043 51.3711 18.8164C51.5936 18.9285 51.8411 18.9814 52.09 18.97C52.3183 18.9668 52.5421 18.9065 52.7412 18.7948C52.9403 18.683 53.1083 18.5232 53.23 18.33H54.08C54.269 18.4452 54.4824 18.5142 54.703 18.5316C54.9237 18.549 55.1453 18.5142 55.35 18.43C55.4114 18.412 55.4668 18.3774 55.51 18.33C55.764 18.1928 55.9678 17.9784 56.0918 17.7177C56.2159 17.457 56.2537 17.1636 56.2 16.88C56.4953 17.0096 56.8248 17.0392 57.1385 16.9643C57.4521 16.8894 57.7328 16.7141 57.9377 16.4651C58.1425 16.216 58.2605 15.9069 58.2735 15.5847C58.2866 15.2625 58.194 14.9448 58.01 14.68C58.84 13.93 58.9 13.59 58.31 12.58C58.94 11.9 58.96 11.58 58.41 10.69C59.08 10.09 59.08 9.69001 58.41 9.02001C58.77 8.37001 58.71 8.02001 58.07 7.65001C58.206 7.51876 58.3128 7.3602 58.3832 7.18476C58.4536 7.00932 58.4861 6.82096 58.4785 6.63207C58.471 6.44317 58.4235 6.25801 58.3393 6.08876C58.2551 5.9195 58.1361 5.76998 57.99 5.65001C58.2203 5.16816 58.3948 4.66153 58.51 4.14001C58.5296 4.00626 58.5218 3.86992 58.4873 3.73923C58.4527 3.60855 58.392 3.48623 58.3088 3.37968C58.2256 3.27312 58.1217 3.18454 58.0033 3.11928C57.8849 3.05403 57.7545 3.01345 57.62 3.00001C58.02 2.00001 57.96 1.35001 57.39 0.930009C56.82 0.51001 56.15 0.56001 55.3 1.20001C55.2294 0.955251 55.0884 0.736624 54.8947 0.571285C54.7009 0.405947 54.4628 0.301184 54.21 0.27001C53.9805 0.254551 53.7507 0.294654 53.5401 0.386918C53.3295 0.479183 53.1442 0.620885 53 0.800009C52.62 0.66001 52.28 0.39001 52 0.43001C51.72 0.47001 51.36 0.760009 51 0.940009C50.4 -0.129991 49.6 -0.189991 48.65 0.840009C48.502 0.559315 48.2734 0.329324 47.9936 0.179627C47.7138 0.02993 47.3956 -0.0326254 47.08 9.50135e-06C46.7565 0.0467305 46.4533 0.185716 46.2068 0.400318C45.9603 0.614921 45.7808 0.896042 45.69 1.21001C45.5584 0.909516 45.3412 0.654431 45.0656 0.476591C44.7899 0.298752 44.468 0.206034 44.14 0.21001C43.8211 0.221923 43.5135 0.330704 43.258 0.521861C43.0025 0.713018 42.8114 0.977476 42.71 1.28001C42.5039 1.0013 42.2149 0.795035 41.8843 0.690832C41.5537 0.586628 41.1986 0.589841 40.87 0.700009C40.5691 0.819272 40.3184 1.03842 40.16 1.32066C40.0016 1.6029 39.9451 1.93104 40 2.25001C39.705 2.12024 39.3759 2.0896 39.062 2.16269C38.7482 2.23577 38.4665 2.40865 38.2592 2.65538C38.0519 2.90212 37.9301 3.20941 37.9123 3.53117C37.8944 3.85293 37.9813 4.17182 38.16 4.44001C37.36 5.19001 37.3 5.53001 37.88 6.54001C37.26 7.22001 37.24 7.54001 37.76 8.43001C37.15 9.00001 37.15 9.44001 37.79 10.13Z" fill="#D20000"/>
<path d="M46.38 49.54C46.38 49.48 46.38 49.47 46.29 49.54L46.1 49.61C46.1 49.61 46.05 49.61 46.04 49.61C46.0887 49.7835 46.1222 49.9608 46.14 50.14C46.14 50.14 46.14 50.21 46.23 50.14L46.49 50.04C46.55 50.04 46.55 49.98 46.49 49.93C46.43 49.88 46.43 49.7 46.38 49.54Z" fill="#D20000"/>
<path d="M52.3099 47.19L52.0699 47.28C51.9799 47.28 51.9599 47.35 51.9899 47.44C52.0437 47.5773 52.0742 47.7227 52.0799 47.87C52.0799 47.96 52.0799 47.99 52.2199 47.95L52.5399 47.82H52.6199C52.6199 47.82 52.6799 47.82 52.6999 47.82L53.0299 47.7L53.1699 47.63C53.3525 47.5754 53.5249 47.4909 53.6799 47.38C53.7587 47.3219 53.8523 47.2873 53.9499 47.28C54.2554 47.2566 54.5458 47.1376 54.7799 46.94C54.8467 46.8917 54.9276 46.8671 55.0099 46.87C55.2579 46.8485 55.4975 46.7698 55.7099 46.64C55.8199 46.57 55.9199 46.46 56.0699 46.46C56.3077 46.4396 56.539 46.3716 56.7499 46.26C56.7901 46.2292 56.8393 46.2125 56.8899 46.2125C56.9406 46.2125 56.9898 46.2292 57.0299 46.26C57.2066 46.4136 57.4269 46.5081 57.6599 46.53C57.9359 46.5694 58.2171 46.5162 58.4596 46.3787C58.7021 46.2411 58.8921 46.0271 58.9999 45.77C59.0969 45.563 59.12 45.329 59.0654 45.107C59.0108 44.885 58.8819 44.6885 58.6999 44.55C58.5089 44.4143 58.2828 44.3365 58.0488 44.3258C57.8147 44.3152 57.5825 44.3722 57.3799 44.49C57.2155 44.567 57.0723 44.6827 56.9625 44.8273C56.8528 44.9719 56.7798 45.141 56.7499 45.32C56.7499 45.49 56.6599 45.59 56.4899 45.63C56.2904 45.6771 56.103 45.7657 55.9399 45.89C55.9128 45.9185 55.8803 45.9411 55.8442 45.9566C55.8081 45.972 55.7692 45.98 55.7299 45.98C55.4013 46.0025 55.0874 46.1246 54.8299 46.33C54.767 46.3783 54.6892 46.4031 54.6099 46.4C54.3656 46.4167 54.1288 46.4922 53.9199 46.62C53.7814 46.7314 53.6157 46.8039 53.4399 46.83C53.2749 46.8339 53.1135 46.8786 52.9699 46.96L52.3099 47.19ZM57.3099 45.13C57.4178 45.0124 57.5566 44.9275 57.7104 44.885C57.8643 44.8426 58.027 44.8443 58.1799 44.89C58.2858 44.9304 58.376 45.0037 58.4372 45.0991C58.4984 45.1944 58.5274 45.3069 58.5199 45.42C58.4966 45.5332 58.4484 45.6398 58.3788 45.7321C58.3093 45.8244 58.2201 45.9001 58.1177 45.9537C58.0153 46.0072 57.9023 46.0374 57.7868 46.042C57.6713 46.0465 57.5562 46.0254 57.4499 45.98C57.3694 45.9485 57.2981 45.8971 57.2429 45.8305C57.1877 45.7639 57.1504 45.6844 57.1344 45.5994C57.1184 45.5144 57.1243 45.4267 57.1515 45.3446C57.1787 45.2625 57.2263 45.1886 57.2899 45.13H57.3099Z" fill="#D20000"/>
<path d="M51.93 48.48C51.9748 48.2994 51.9748 48.1106 51.93 47.93C51.9047 47.676 51.8335 47.4286 51.72 47.2C51.6101 47.0444 51.4704 46.9121 51.3091 46.8108C51.1477 46.7095 50.9679 46.6413 50.7799 46.61C50.6199 46.61 50.6 46.61 50.56 46.76C50.5552 46.8299 50.5552 46.9001 50.56 46.97V46.71C50.56 46.61 50.56 46.56 50.4 46.57C50.3102 46.5605 50.2197 46.5605 50.13 46.57C49.9918 46.5983 49.8624 46.6594 49.7527 46.7482C49.6431 46.8369 49.5564 46.9507 49.5 47.08C49.4237 47.2996 49.3766 47.5282 49.36 47.76C49.3361 47.8966 49.3505 48.0371 49.4017 48.166C49.4529 48.2949 49.5389 48.407 49.65 48.49C49.796 48.5975 49.9101 48.7427 49.9799 48.91C50.0399 49.05 50.07 49.2 50.13 49.34C50.1705 49.4549 50.2467 49.5537 50.3475 49.6221C50.4482 49.6905 50.5683 49.7248 50.6899 49.72C50.9781 49.7137 51.2655 49.6869 51.5499 49.64C51.6366 49.6303 51.7169 49.5895 51.7757 49.5251C51.8346 49.4608 51.8681 49.3772 51.8699 49.29C51.8539 49.194 51.8271 49.1 51.79 49.01C51.79 48.88 51.6599 48.86 51.5499 48.83H51.61C51.689 48.8044 51.7601 48.7586 51.8162 48.6973C51.8723 48.6359 51.9115 48.5611 51.93 48.48Z" fill="#D20000"/>
<path d="M48.37 50.85C48.4505 50.8025 48.5274 50.749 48.6 50.69C48.7801 50.5609 48.9042 50.368 48.9469 50.1506C48.9897 49.9332 48.9479 49.7076 48.83 49.52C48.8108 49.4888 48.8 49.4532 48.7989 49.4165C48.7977 49.3799 48.8061 49.3436 48.8233 49.3113C48.8405 49.2789 48.8658 49.2517 48.8968 49.2321C48.9278 49.2126 48.9634 49.2015 49 49.2L49.6 48.96C49.76 48.91 49.77 48.85 49.6 48.74C49.4755 48.6455 49.3645 48.5345 49.27 48.41C49.2567 48.401 49.241 48.3961 49.225 48.3961C49.2089 48.3961 49.1933 48.401 49.18 48.41L48.93 48.5L48.37 48.72C48.3559 48.6238 48.3559 48.5262 48.37 48.43C48.39 48.285 48.4304 48.1436 48.49 48.01C48.58 47.7 48.49 47.5 48.13 47.5H48C47.6511 47.5502 47.3131 47.6583 47 47.82C46.7486 47.9399 46.552 48.1508 46.45 48.41C46.45 48.52 46.45 48.56 46.54 48.61L46.72 48.68C46.6812 48.6937 46.6388 48.6937 46.6 48.68C46.4 48.68 46.38 48.68 46.41 48.9C46.4465 49.1378 46.5034 49.372 46.58 49.6C46.6926 49.9733 46.833 50.3376 47 50.69C47.0468 50.7954 47.1187 50.8879 47.2093 50.9593C47.2999 51.0308 47.4065 51.0791 47.52 51.1C47.6718 51.1131 47.8247 51.0961 47.97 51.05C48.08 51.05 48.14 50.97 48.13 50.85C48.125 50.7968 48.125 50.7432 48.13 50.69C48.13 50.69 48.13 50.69 48.13 50.75C48.13 50.81 48.23 50.93 48.37 50.85Z" fill="#D20000"/>
<path d="M43.68 51.07C43.5472 50.9639 43.4234 50.8468 43.31 50.72C43.2935 50.7165 43.2765 50.7165 43.26 50.72C43.26 50.72 43.26 50.72 43.2 50.72L42.78 50.88C42.71 50.88 42.78 50.95 42.78 50.98C42.9213 51.0828 43.0375 51.2161 43.12 51.37C43.12 51.43 43.19 51.44 43.25 51.37L43.67 51.22C43.76 51.17 43.77 51.14 43.68 51.07Z" fill="#D20000"/>
<path d="M45.61 49.2C45.4551 49.0703 45.2744 48.9749 45.08 48.92C44.93 48.92 44.88 48.92 44.84 49.05C44.8 49.18 44.77 49.34 44.74 49.48C44.7304 49.3156 44.7104 49.1519 44.68 48.99C44.68 48.91 44.68 48.85 44.54 48.85C44.264 48.8373 43.9911 48.9128 43.7609 49.0657C43.5308 49.2185 43.3553 49.4407 43.26 49.7C43.2124 49.8446 43.1985 49.9981 43.2193 50.1489C43.2401 50.2997 43.2951 50.4437 43.38 50.57C43.5364 50.7598 43.7143 50.931 43.91 51.08C44.05 51.22 44.05 51.22 44.23 51.13C44.23 51.13 44.23 51.2 44.17 51.23C44.1449 51.2479 44.1252 51.2722 44.1128 51.3003C44.1005 51.3285 44.0961 51.3595 44.1 51.39C44.1 51.57 44.16 51.74 44.2 51.91C44.2045 51.9539 44.2183 51.9963 44.2405 52.0345C44.2627 52.0726 44.2928 52.1055 44.3288 52.1311C44.3648 52.1567 44.4058 52.1743 44.4491 52.1827C44.4924 52.1911 44.537 52.1902 44.58 52.18C44.7939 52.1603 45.0032 52.1063 45.2 52.02C45.4157 51.9423 45.6051 51.8055 45.7466 51.6251C45.8881 51.4447 45.9759 51.228 46 51C46.0702 50.5972 46.0497 50.1839 45.94 49.79C45.8973 49.5626 45.7814 49.3554 45.61 49.2Z" fill="#D20000"/>
<path d="M42.6299 51L42.3199 50.78C42.2099 50.69 42.1899 50.69 42.0799 50.78C41.9852 50.8677 41.8813 50.9448 41.7699 51.01C41.8718 50.8892 41.9559 50.7545 42.0199 50.61C42.0546 50.5069 42.0579 50.3958 42.0295 50.2908C42.001 50.1857 41.942 50.0915 41.8599 50.02C41.8016 49.9794 41.7305 49.9617 41.6599 49.97C41.5675 49.9722 41.4775 49.9999 41.3999 50.05L40.2799 50.73C40.1669 50.7806 40.0756 50.8697 40.0224 50.9816C39.9693 51.0934 39.9577 51.2205 39.9899 51.34C40.0026 51.4163 40.0262 51.4904 40.0599 51.56C40.1603 51.749 40.2705 51.9326 40.3899 52.11C40.4416 52.207 40.4686 52.3152 40.4686 52.425C40.4686 52.5349 40.4416 52.6431 40.3899 52.74C40.3238 52.8527 40.2734 52.9738 40.2399 53.1C40.2206 53.1736 40.2258 53.2515 40.2546 53.3218C40.2835 53.3922 40.3345 53.4513 40.3999 53.49C40.5102 53.5561 40.6364 53.5911 40.7649 53.5911C40.8935 53.5911 41.0197 53.5561 41.1299 53.49C41.2683 53.3977 41.3988 53.294 41.5199 53.18C41.5899 53.12 41.6599 53.08 41.6299 52.97C41.6985 52.9903 41.7714 52.9903 41.8399 52.97C41.9806 52.9262 42.1243 52.8928 42.2699 52.87C42.5176 52.8332 42.7424 52.7047 42.8999 52.51C42.9938 52.3979 43.062 52.2665 43.0996 52.1252C43.1373 51.9838 43.1434 51.836 43.1177 51.692C43.0919 51.548 43.0349 51.4114 42.9506 51.2919C42.8664 51.1723 42.7569 51.0727 42.6299 51Z" fill="#D20000"/>
<path d="M40.33 52.37C40.2859 52.2234 40.2184 52.0849 40.13 51.96C40.08 51.88 40.03 51.87 39.94 51.9L37.82 52.71C37.5 52.83 37.17 52.94 36.82 53.09C36.4412 53.3019 36.0771 53.5391 35.73 53.8C35.73 53.8 35.67 53.8 35.73 53.87C35.79 53.94 35.8 53.87 35.84 53.87L36.55 53.76C36.7706 53.7451 36.9887 53.7049 37.2 53.64L38.42 53.17L38.6 53.1L39.17 52.89H39.23L39.76 52.68H39.81H39.92L40.13 52.6H40.23C40.2605 52.6132 40.2951 52.6138 40.326 52.6016C40.3569 52.5894 40.3818 52.5655 40.395 52.535C40.4083 52.5045 40.4089 52.4699 40.3967 52.439C40.3845 52.408 40.3605 52.3832 40.33 52.37Z" fill="#D20000"/>
<path d="M117.86 29.9C116.846 28.8739 115.637 28.0606 114.305 27.5077C112.972 26.9548 111.543 26.6734 110.1 26.68V34.29C110.087 36.7502 109.277 39.1397 107.79 41.1V47.5L108.4 47.29L110.95 46.43C111.04 46.4052 111.121 46.3528 111.18 46.28C111.389 46.0269 111.662 45.8337 111.97 45.72L113.9 45L117.8 43.53C118.021 43.4475 118.254 43.4036 118.49 43.4C118.873 43.3959 119.249 43.5085 119.567 43.7228C119.885 43.9371 120.13 44.2431 120.27 44.6C120.366 44.8244 120.416 45.0659 120.416 45.31C120.416 45.5542 120.366 45.7957 120.27 46.02C120.048 46.4804 119.658 46.8383 119.18 47.02L115.91 48.24L113.39 49.18C113.16 49.2673 112.916 49.3114 112.67 49.31C112.56 49.3199 112.45 49.3199 112.34 49.31C112.155 49.3528 111.974 49.4131 111.8 49.49L110.8 49.92L107.87 51.12V51.81H117.68C118.138 51.8101 118.591 51.7197 119.014 51.5442C119.437 51.3687 119.821 51.1115 120.144 50.7872C120.468 50.463 120.724 50.0782 120.898 49.6549C121.072 49.2315 121.161 48.7779 121.16 48.32V37.68C121.155 36.229 120.861 34.7934 120.294 33.4575C119.727 32.1217 118.9 30.9122 117.86 29.9ZM109.15 44.67C109.017 44.67 108.89 44.6174 108.796 44.5236C108.703 44.4298 108.65 44.3027 108.65 44.17C108.65 44.0374 108.703 43.9103 108.796 43.8165C108.89 43.7227 109.017 43.67 109.15 43.67C109.283 43.67 109.41 43.7227 109.504 43.8165C109.597 43.9103 109.65 44.0374 109.65 44.17C109.65 44.3027 109.597 44.4298 109.504 44.5236C109.41 44.6174 109.283 44.67 109.15 44.67ZM109.15 42.61C109.017 42.61 108.89 42.5574 108.796 42.4636C108.703 42.3698 108.65 42.2427 108.65 42.11C108.65 41.9774 108.703 41.8503 108.796 41.7565C108.89 41.6627 109.017 41.61 109.15 41.61C109.283 41.61 109.41 41.6627 109.504 41.7565C109.597 41.8503 109.65 41.9774 109.65 42.11C109.65 42.2427 109.597 42.3698 109.504 42.4636C109.41 42.5574 109.283 42.61 109.15 42.61ZM114.07 38.2H113.63V37.61H114.07V38.2ZM114.07 37.39H113.63V35H114.07V37.39ZM114.07 34.82H113.63V34.23H114.07V34.82ZM114.92 38.2H114.45V37.61H114.92V38.2ZM114.92 37.39H114.45V35H114.92V37.39ZM114.92 34.82H114.45V34.23H114.92V34.82ZM115.76 38.2H115.3V37.61H115.76V38.2ZM115.76 37.39H115.3V35H115.76V37.39ZM115.76 34.82H115.3V34.23H115.76V34.82ZM116.59 38.2H116.13V37.61H116.59V38.2ZM116.59 37.39H116.13V35H116.59V37.39ZM116.59 34.82H116.13V34.23H116.59V34.82ZM117.43 38.2H117V37.61H117.46L117.43 38.2ZM117.43 37.39H117V35H117.46L117.43 37.39ZM117.43 34.82H117V34.23H117.46L117.43 34.82Z" fill="#F16E20"/>
<path d="M107.78 8.79995H117.78V8.43995C117.78 7.33647 117.562 6.24384 117.139 5.22461C116.717 4.20538 116.097 3.27959 115.316 2.50024C114.534 1.7209 113.607 1.10331 112.587 0.682852C111.567 0.262393 110.474 0.0473201 109.37 0.0499506H107.78V8.79995Z" fill="#F16E20"/>
<path d="M97 9.58997V13C97 13.2237 97.0882 13.4384 97.2454 13.5975C97.4027 13.7566 97.6163 13.8473 97.84 13.85H116.9C117.125 13.85 117.342 13.7604 117.501 13.601C117.66 13.4416 117.75 13.2254 117.75 13V9.58997H97Z" fill="#F16E20"/>
<path d="M107 8.79995V0.0499506H105.4C104.297 0.0473174 103.204 0.262461 102.185 0.683042C101.165 1.10362 100.238 1.72137 99.458 2.50084C98.6776 3.28032 98.0587 4.20619 97.6369 5.22536C97.2151 6.24453 96.9987 7.33695 97 8.43995V8.79995H107Z" fill="#F16E20"/>
<path d="M99.66 23.35C101.59 23.24 102.66 21.85 103.86 20.68C104.79 19.79 105.86 19.03 107.21 19.83C107.32 19.9 107.54 19.83 107.68 19.76C108.065 19.5478 108.506 19.4598 108.943 19.5081C109.38 19.5565 109.791 19.7388 110.12 20.03C110.506 20.3275 110.876 20.6446 111.23 20.98C112.35 22.06 113.35 23.3 115.1 23.44C113.792 23.9514 112.361 24.0628 110.99 23.76C109.89 23.57 108.84 23.15 107.76 22.87C107.517 22.7892 107.253 22.7892 107.01 22.87C104.885 23.8105 102.526 24.0893 100.24 23.67C100.069 23.6304 99.9021 23.5769 99.74 23.51L99.66 23.35Z" fill="#F16E20"/>
<path d="M104.66 34.2901V26.6801C101.743 26.6801 98.9448 27.839 96.8819 29.9019C94.819 31.9648 93.66 34.7627 93.66 37.6801V48.3101C93.6607 48.8749 93.7984 49.4312 94.0614 49.9311C94.3244 50.431 94.7049 50.8596 95.17 51.1801C95.1428 50.8346 95.212 50.4884 95.37 50.1801C95.5007 49.9267 95.6801 49.7018 95.8981 49.5181C96.1161 49.3345 96.3682 49.1958 96.64 49.1101L102.64 47.1801C102.961 47.0683 103.3 47.0141 103.64 47.0201C104.084 47.0203 104.522 47.1191 104.924 47.3093C105.325 47.4995 105.679 47.7764 105.96 48.1201L107.03 47.7401V41.1001C105.523 39.147 104.691 36.7569 104.66 34.2901ZM97.79 38.2001H97.33V37.6101H97.79V38.2001ZM97.79 37.3901H97.33V35.0001H97.79V37.3901ZM97.79 34.8201H97.33V34.2301H97.79V34.8201ZM98.64 38.2001H98.17V37.6101H98.64V38.2001ZM98.64 37.3901H98.17V35.0001H98.64V37.3901ZM98.64 34.8201H98.17V34.2301H98.64V34.8201ZM99.47 38.2001H99V37.6101H99.47V38.2001ZM99.47 37.3901H99V35.0001H99.47V37.3901ZM99.47 34.8201H99V34.2301H99.47V34.8201ZM100.31 38.2001H99.84V37.6101H100.31V38.2001ZM100.31 37.3901H99.84V35.0001H100.31V37.3901ZM100.31 34.8201H99.84V34.2301H100.31V34.8201ZM101.14 38.2001H100.69V37.6101H101.14V38.2001ZM101.14 37.3901H100.69V35.0001H101.14V37.3901ZM101.14 34.8201H100.69V34.2301H101.14V34.8201ZM105.61 44.6701C105.483 44.6676 105.361 44.6165 105.27 44.5273C105.179 44.4381 105.125 44.3175 105.12 44.1901C105.123 44.0609 105.175 43.9377 105.266 43.8464C105.358 43.7551 105.481 43.7026 105.61 43.7001C105.743 43.7001 105.87 43.7527 105.964 43.8465C106.057 43.9403 106.11 44.0674 106.11 44.2001C106.11 44.3327 106.057 44.4598 105.964 44.5536C105.87 44.6474 105.743 44.7001 105.61 44.7001V44.6701ZM105.61 42.6101C105.477 42.6101 105.35 42.5574 105.256 42.4636C105.163 42.3698 105.11 42.2427 105.11 42.1101C105.11 41.9774 105.163 41.8503 105.256 41.7565C105.35 41.6627 105.477 41.6101 105.61 41.6101C105.743 41.6101 105.87 41.6627 105.964 41.7565C106.057 41.8503 106.11 41.9774 106.11 42.1101C106.11 42.2427 106.057 42.3698 105.964 42.4636C105.87 42.5574 105.743 42.6101 105.61 42.6101Z" fill="#F16E20"/>
<path d="M96.51 51.44L97.17 53.31C97.17 53.44 97.28 53.57 97.33 53.71L97.42 53.96C97.59 54.38 97.75 54.8 97.94 55.21C98.0302 55.3853 98.1842 55.5193 98.3702 55.5844C98.5563 55.6495 98.7602 55.6408 98.94 55.56C100.83 54.75 102.72 53.93 104.61 53.13C104.984 53.0007 105.305 52.7509 105.522 52.4198C105.739 52.0886 105.841 51.6948 105.81 51.3C105.786 51.0696 105.842 50.8379 105.97 50.6446C106.098 50.4513 106.289 50.3083 106.51 50.24C108.08 49.61 109.64 48.96 111.2 48.32C111.593 48.1107 112.036 48.0171 112.48 48.05C112.608 48.0796 112.742 48.0796 112.87 48.05C114.8 47.33 116.72 46.6 118.65 45.89C118.807 45.8312 118.936 45.7147 119.01 45.5642C119.085 45.4137 119.099 45.2406 119.05 45.08C118.982 44.9301 118.859 44.8122 118.706 44.7507C118.553 44.6893 118.383 44.689 118.23 44.75L112.41 46.94C112.312 46.9762 112.223 47.0343 112.15 47.11C111.938 47.3737 111.653 47.5686 111.33 47.67L109.75 48.21C108.56 48.62 107.36 49.02 106.18 49.44C105.962 49.4881 105.734 49.4722 105.525 49.3941C105.316 49.3161 105.133 49.1792 105 49C104.778 48.6954 104.463 48.4711 104.102 48.3611C103.741 48.2511 103.354 48.2612 103 48.39L97 50.32C96.8884 50.3532 96.7854 50.4103 96.6982 50.4874C96.611 50.5644 96.5416 50.6596 96.4949 50.7663C96.4483 50.8729 96.4255 50.9884 96.4281 51.1048C96.4307 51.2212 96.4586 51.3356 96.51 51.44ZM117.46 45.38C117.559 45.2664 117.685 45.1801 117.827 45.1293C117.969 45.0785 118.121 45.065 118.27 45.09C118.322 45.1 118.37 45.1239 118.409 45.1591C118.448 45.1943 118.477 45.2395 118.492 45.2899C118.508 45.3403 118.509 45.3939 118.497 45.445C118.484 45.4961 118.457 45.5428 118.42 45.58C118.318 45.6991 118.182 45.7853 118.031 45.828C117.88 45.8707 117.72 45.8679 117.57 45.82C117.37 45.73 117.33 45.58 117.46 45.38ZM104.3 51.72C104.381 51.67 104.478 51.6516 104.572 51.6682C104.666 51.6848 104.751 51.7352 104.81 51.81C104.88 51.8816 104.925 51.9741 104.937 52.0733C104.95 52.1726 104.93 52.2732 104.88 52.36C104.803 52.4351 104.715 52.499 104.62 52.55L99.51 54.64C99.4372 54.6844 99.3539 54.7087 99.2687 54.7102C99.1834 54.7117 99.0993 54.6905 99.025 54.6488C98.9506 54.607 98.8887 54.5462 98.8457 54.4726C98.8026 54.399 98.78 54.3153 98.78 54.23C98.7656 54.1275 98.7877 54.0232 98.8426 53.9354C98.8975 53.8476 98.9815 53.782 99.08 53.75L104.3 51.72ZM104.3 50.41C104.366 50.4859 104.408 50.5803 104.419 50.6806C104.429 50.7808 104.409 50.8819 104.36 50.97C104.278 51.0378 104.187 51.0949 104.09 51.14L98.93 53.14C98.8563 53.1803 98.7732 53.2005 98.6892 53.1987C98.6052 53.1968 98.5232 53.1729 98.4513 53.1293C98.3794 53.0858 98.3202 53.0242 98.2796 52.9506C98.239 52.877 98.2185 52.7941 98.22 52.71C98.206 52.6088 98.2285 52.5059 98.2835 52.4198C98.3385 52.3337 98.4223 52.27 98.52 52.24L103.78 50.32C103.866 50.268 103.968 50.2485 104.067 50.265C104.166 50.2815 104.256 50.3329 104.32 50.41H104.3ZM98.05 50.7L102.32 49.27C102.65 49.15 102.99 49.03 103.32 48.93C103.426 48.9151 103.534 48.9151 103.64 48.93C103.721 48.9671 103.79 49.0261 103.84 49.1003C103.889 49.1744 103.917 49.2609 103.92 49.35C103.926 49.4451 103.9 49.5395 103.845 49.6176C103.791 49.6957 103.711 49.753 103.62 49.78L100.52 50.89L98.35 51.65C98.2881 51.6824 98.2196 51.7002 98.1497 51.7021C98.0798 51.704 98.0105 51.6899 97.9469 51.661C97.8832 51.6321 97.827 51.589 97.7825 51.5352C97.738 51.4813 97.7064 51.418 97.69 51.35C97.6616 51.2827 97.6492 51.2097 97.6539 51.1367C97.6586 51.0638 97.6803 50.9929 97.7172 50.9298C97.7541 50.8667 97.8052 50.8131 97.8664 50.7732C97.9277 50.7333 97.9974 50.7083 98.07 50.7H98.05Z" fill="#F16E20"/>
</svg>
