<svg width="63" height="64" viewBox="0 0 63 64" fill="none" xmlns="http://www.w3.org/2000/svg">
<g clip-path="url(#clip0_295_2120)">
<path d="M62.1698 29.6531C62.1063 28.149 60.0889 28.4615 60.0889 28.4615C60.0889 28.4615 59.2748 28.5878 59.397 27.5224C59.5191 26.4571 60.9096 24.3264 57.0637 24.3264C53.2179 24.3264 17.8614 24.2001 11.9999 24.3264C6.13833 24.4527 2.79725 23.6383 2.41951 26.0183V27.898C2.41951 27.898 2.86075 28.4 2.04177 28.4C1.22278 28.4 0.213291 28.3336 0.024419 29.4022C-0.164453 30.4707 0.781535 31.0326 1.60052 31.0326H2.41463C2.41463 31.0326 1.89523 41.6229 2.53348 42.9392C3.17174 44.2555 3.80186 46.3246 7.45718 46.2615C11.1125 46.1983 42.8788 46.2615 42.8788 46.2615C42.8788 46.2615 55.7416 46.9512 57.3698 46.2615C58.9981 45.5718 59.397 44.5064 59.5223 40.3147C59.6477 36.1229 58.7082 30.9127 59.5223 30.9127C60.3364 30.9127 62.2317 31.1572 62.1698 29.6531ZM55.867 43.8167C53.4084 43.8167 9.35241 44.5696 7.39856 44.0676C5.44472 43.5657 5.19235 44.0045 5.06697 42.1879C4.9416 40.3713 4.7511 32.8491 4.68923 30.8431C4.62736 28.8371 4.57037 27.1015 5.06697 27.0837C5.06697 27.0837 25.1721 26.3308 36.8951 26.7696C48.6182 27.2083 56.1194 26.8586 56.1194 26.8586C56.1194 26.8586 57.0637 26.4571 57.0637 27.7734C57.0637 29.0897 57.505 39.8063 57.5685 41.3735C57.632 42.9408 58.324 43.8167 55.867 43.8167Z" fill="#F16E20"/>
<path d="M12.3043 39.1603L11.741 39.0713C11.0718 38.9644 9.58521 39.6412 9.47775 40.3082L6.82215 62.0037C6.7966 62.1619 6.80267 62.3235 6.84 62.4794C6.87732 62.6353 6.94518 62.7823 7.0397 62.9121C7.13421 63.0418 7.25352 63.1518 7.3908 63.2357C7.52809 63.3196 7.68065 63.3757 7.83978 63.4009L8.40313 63.49C8.56235 63.5154 8.72503 63.5093 8.88187 63.4721C9.03871 63.4348 9.18662 63.3672 9.31715 63.2731C9.44767 63.1789 9.55823 63.0601 9.64251 62.9234C9.72678 62.7867 9.78312 62.6348 9.80828 62.4764L14.0172 40.8085C14.123 40.1431 12.9735 39.2672 12.3043 39.1603Z" fill="#F16E20"/>
<path d="M17.4218 44.8205L16.1876 44.5695C15.5184 44.4627 14.662 44.6051 14.5594 45.2706L12.6055 61.2718C12.58 61.43 12.5861 61.5916 12.6234 61.7475C12.6607 61.9034 12.7286 62.0504 12.8231 62.1802C12.9176 62.3099 13.0369 62.4199 13.1742 62.5038C13.3115 62.5877 13.464 62.6438 13.6232 62.669L14.1865 62.7597C14.508 62.8105 14.8366 62.7323 15.1001 62.5422C15.3636 62.3522 15.5404 62.0658 15.5917 61.7462L18.7504 45.4843C18.8464 44.8189 18.0893 44.9257 17.4218 44.8205Z" fill="#F16E20"/>
<path d="M50.4027 39.667L50.9661 39.578C51.6353 39.4711 53.1218 40.1479 53.2293 40.8133L55.8865 62.5088C55.9377 62.8286 55.8591 63.1556 55.6679 63.4179C55.4768 63.6802 55.1889 63.8563 54.8673 63.9076L54.3039 63.9967C53.9824 64.0475 53.6538 63.9693 53.3903 63.7792C53.1268 63.5892 52.95 63.3028 52.8988 62.9832L48.6915 41.3104C48.584 40.6385 49.7335 39.7674 50.4027 39.667Z" fill="#F16E20"/>
<path d="M45.2869 45.3208L46.5211 45.0699C47.1903 44.9646 48.0467 45.1055 48.1493 45.7709L50.1031 61.7738C50.1543 62.0935 50.0756 62.4202 49.8845 62.6823C49.6933 62.9443 49.4054 63.1201 49.0839 63.171L48.5205 63.2601C48.3613 63.2855 48.1986 63.2794 48.0418 63.2421C47.885 63.2049 47.737 63.1373 47.6065 63.0432C47.476 62.949 47.3654 62.8302 47.2812 62.6935C47.1969 62.5568 47.1405 62.4049 47.1154 62.2465L43.9616 45.9814C43.8606 45.3192 44.6128 45.4277 45.2869 45.3208Z" fill="#F16E20"/>
<path d="M13.3187 31.6608C13.3187 32.459 12.6674 32.6613 11.8663 32.6613C11.0653 32.6613 10.1388 32.4088 10.414 31.6608C10.7396 30.7816 11.202 30.2198 11.8663 30.2166C12.0571 30.2163 12.2461 30.2536 12.4224 30.3261C12.5987 30.3986 12.7589 30.5049 12.8938 30.6391C13.0287 30.7732 13.1357 30.9325 13.2086 31.1078C13.2815 31.2831 13.3189 31.471 13.3187 31.6608Z" fill="#F16E20"/>
<path d="M24.651 31.6608C24.651 32.459 23.9997 32.6613 23.1987 32.6613C22.3976 32.6613 21.4711 32.4088 21.7463 31.6608C22.0719 30.7816 22.5344 30.2198 23.1987 30.2166C23.3895 30.2163 23.5784 30.2536 23.7547 30.3261C23.931 30.3986 24.0912 30.5049 24.2261 30.6391C24.361 30.7732 24.468 30.9325 24.5409 31.1078C24.6138 31.2831 24.6512 31.471 24.651 31.6608Z" fill="#F16E20"/>
<path d="M37.7744 31.6608C37.7744 32.459 37.1231 32.6613 36.3236 32.6613C35.5242 32.6613 34.5945 32.4088 34.8713 31.6608C35.1969 30.7816 35.6593 30.2198 36.3236 30.2166C36.5143 30.2166 36.7031 30.2539 36.8792 30.3265C37.0553 30.3991 37.2153 30.5055 37.35 30.6396C37.4848 30.7738 37.5916 30.933 37.6644 31.1082C37.7372 31.2834 37.7746 31.4712 37.7744 31.6608Z" fill="#F16E20"/>
<path d="M51.9398 31.6608C51.9398 32.459 51.2885 32.6613 50.4874 32.6613C49.6863 32.6613 48.7599 32.4088 49.0367 31.6608C49.3623 30.7816 49.8231 30.2198 50.4874 30.2166C50.6782 30.2163 50.8672 30.2536 51.0435 30.3261C51.2198 30.3986 51.38 30.5049 51.5149 30.6391C51.6498 30.7732 51.7568 30.9325 51.8297 31.1078C51.9026 31.2831 51.94 31.471 51.9398 31.6608Z" fill="#F16E20"/>
<path d="M14.9616 21.9578C13.3236 20.724 13.1347 18.4978 9.54127 19.6247C5.94782 20.7516 6.80589 24.286 6.80589 24.286L14.9616 24.511C14.9616 24.511 16.6077 23.198 14.9616 21.9578ZM10.4205 23.1348C9.86366 23.1348 8.706 23.3663 8.7923 22.8223C8.7923 22.8223 8.89976 20.7532 10.4205 20.7532C11.9412 20.7532 13.6378 22.1326 13.7648 22.8288C13.8918 23.525 10.9725 23.1348 10.4205 23.1348Z" fill="#F16E20"/>
<path d="M20.0497 24.5952L28.207 24.3701C28.207 24.3701 29.0634 20.8341 25.47 19.7056C21.8765 18.5771 21.6893 20.7985 20.0497 22.0387C18.4101 23.2789 20.0497 24.5952 20.0497 24.5952ZM21.2481 22.9032C21.3734 22.2135 23.0749 20.8341 24.5973 20.8341C26.1197 20.8341 26.2255 22.9032 26.2255 22.9032C26.3118 23.4472 25.1541 23.2157 24.5973 23.2157C24.0404 23.2157 21.1211 23.5913 21.2481 22.9032Z" fill="#F16E20"/>
<path d="M40.4967 22.0792C38.8571 20.839 38.6683 18.6193 35.0764 19.7526C31.4846 20.8859 32.3411 24.4171 32.3411 24.4171L40.4967 24.6422C40.4967 24.6422 42.1347 23.3145 40.4967 22.0792ZM35.9492 23.2563C35.3907 23.2563 34.233 23.4878 34.321 22.9438C34.321 22.9438 34.4284 20.8746 35.9492 20.8746C37.4699 20.8746 39.173 22.2541 39.2984 22.9438C39.4238 23.6335 36.5076 23.2563 35.9492 23.2563Z" fill="#F16E20"/>
<path d="M45.5897 24.7166L53.7454 24.4916C53.7454 24.4916 54.6019 20.9555 51.01 19.827C47.4182 18.6986 47.2179 20.9199 45.5897 22.1601C43.9615 23.4003 45.5897 24.7166 45.5897 24.7166ZM46.7865 23.0247C46.9135 22.335 48.6149 20.9555 50.1373 20.9555C51.6597 20.9555 51.7655 23.0247 51.7655 23.0247C51.8534 23.5687 50.6942 23.3372 50.1373 23.3372C49.5805 23.3372 46.6562 23.7128 46.7816 23.0247H46.7865Z" fill="#F16E20"/>
<path d="M24.9278 5.96302C24.9278 5.96302 25.5481 7.80066 24.2049 8.71543C22.8616 9.6302 22.7753 11.6443 23.4461 13.5661C24.1169 15.488 25.7256 16.0287 26.3476 15.0298C26.9696 14.0308 25.2974 13.0238 25.2974 11.6443C25.2974 10.2649 27.9856 9.09591 27.9856 6.5896C27.9856 4.08329 26.8654 2.3687 25.5107 2.11774C24.156 1.86679 22.5588 3.23813 24.9278 5.96302Z" fill="#F16E20"/>
<path d="M30.8138 3.87281C30.8138 3.87281 31.4342 5.71207 30.0893 6.62522C28.7444 7.53837 28.6564 9.55249 29.3338 11.4776C30.0111 13.4026 31.6019 13.9434 32.2336 12.9347C32.8653 11.926 31.1818 10.9303 31.1818 9.55087C31.1818 8.17142 33.8667 7.00732 33.8667 4.49939C33.8667 1.99146 32.7465 0.280104 31.3967 0.0291492C30.0469 -0.221806 28.4448 1.13335 30.8138 3.87281Z" fill="#F16E20"/>
<path d="M37.242 6.67208C37.242 6.67208 37.8639 8.51133 36.5191 9.42449C35.1742 10.3376 35.0895 12.3485 35.7619 14.2703C36.4344 16.1922 38.0317 16.7362 38.6618 15.7275C39.2919 14.7188 37.6116 13.7344 37.6116 12.355C37.6116 10.9755 40.2997 9.80659 40.2997 7.29866C40.2997 4.79072 39.1747 3.07613 37.8249 2.82842C36.4751 2.5807 34.8746 3.94071 37.242 6.67208Z" fill="#F16E20"/>
<path d="M6.93128 37.517C6.93128 37.517 5.85667 35.5093 5.81759 33.5519C5.77851 31.5944 6.36792 31.0617 6.55028 31.6883C6.73264 32.3149 6.58936 33.6441 6.62355 34.1542C6.65774 34.6642 7.72422 37.117 7.04363 37.3777" fill="#F16E20"/>
<path d="M8.46668 38.1354C8.46668 38.1354 7.39207 36.1277 7.35299 34.1703C7.31391 32.2128 7.90332 31.6801 8.08568 32.3067C8.26804 32.9333 8.12476 34.2642 8.15895 34.7726C8.19314 35.281 9.25962 37.7355 8.57903 37.9961" fill="#F16E20"/>
<path d="M9.73017 38.7993C9.73017 38.7993 8.65556 36.7932 8.61648 34.8358C8.5774 32.8784 9.16681 32.3457 9.34917 32.9723C9.53153 33.5988 9.38988 34.9281 9.42407 35.4381C9.45826 35.9481 10.5231 38.401 9.84252 38.6616" fill="#F16E20"/>
</g>
<defs>
<clipPath id="clip0_295_2120">
<rect width="62.1714" height="64" fill="white"/>
</clipPath>
</defs>
</svg>
