<svg width="30" height="36" viewBox="0 0 30 36" fill="none" xmlns="http://www.w3.org/2000/svg">
<path fill-rule="evenodd" clip-rule="evenodd" d="M22.4547 25.0916C24.7574 21.8917 26.3359 18.3759 26.3359 14.814C26.3359 13.3009 26.0379 11.8026 25.4589 10.4047C24.8798 9.00679 24.0311 7.73661 22.9612 6.6667C21.8913 5.59679 20.6211 4.74808 19.2232 4.16905C17.8253 3.59002 16.3271 3.29199 14.814 3.29199C13.3009 3.29199 11.8026 3.59002 10.4047 4.16905C9.00679 4.74808 7.73661 5.59679 6.6667 6.6667C5.59679 7.73661 4.74808 9.00679 4.16905 10.4047C3.59002 11.8026 3.29199 13.3009 3.29199 14.814C3.29199 18.3743 4.86886 21.8917 7.17325 25.0916C9.46118 28.2683 12.2758 30.8624 14.2823 32.5051C14.6115 32.7751 15.0164 32.7751 15.3456 32.5051C17.3521 30.8624 20.1667 28.2683 22.4547 25.0916ZM17.4311 35.0531C21.686 31.5686 29.6279 23.8538 29.6279 14.814C29.6279 12.8686 29.2448 10.9422 28.5003 9.14491C27.7558 7.34759 26.6646 5.71451 25.289 4.33891C23.9134 2.96331 22.2803 1.87212 20.483 1.12765C18.6857 0.383174 16.7594 0 14.814 0C12.8686 0 10.9422 0.383174 9.14491 1.12765C7.34759 1.87212 5.71451 2.96331 4.33891 4.33891C2.96331 5.71451 1.87212 7.34759 1.12765 9.14491C0.383174 10.9422 -2.89887e-08 12.8686 0 14.814C0 23.8538 7.94193 31.5702 12.1968 35.0531C12.9317 35.665 13.8577 36 14.814 36C15.7702 36 16.6962 35.665 17.4311 35.0531Z" fill="#F16E20"/>
<path fill-rule="evenodd" clip-rule="evenodd" d="M14.814 11.522C13.9409 11.522 13.1035 11.8688 12.4862 12.4862C11.8688 13.1035 11.522 13.9409 11.522 14.814C11.522 15.6871 11.8688 16.5244 12.4862 17.1418C13.1035 17.7591 13.9409 18.106 14.814 18.106C15.6871 18.106 16.5244 17.7591 17.1418 17.1418C17.7591 16.5244 18.106 15.6871 18.106 14.814C18.106 13.9409 17.7591 13.1035 17.1418 12.4862C16.5244 11.8688 15.6871 11.522 14.814 11.522ZM8.22998 14.814C8.22998 13.0678 8.92365 11.3931 10.1584 10.1584C11.3931 8.92365 13.0678 8.22998 14.814 8.22998C16.5601 8.22998 18.2348 8.92365 19.4695 10.1584C20.7043 11.3931 21.3979 13.0678 21.3979 14.814C21.3979 16.5601 20.7043 18.2348 19.4695 19.4695C18.2348 20.7043 16.5601 21.3979 14.814 21.3979C13.0678 21.3979 11.3931 20.7043 10.1584 19.4695C8.92365 18.2348 8.22998 16.5601 8.22998 14.814Z" fill="#F16E20"/>
</svg>
