<svg width="34" height="10" viewBox="0 0 34 10" fill="none" xmlns="http://www.w3.org/2000/svg">
<path d="M22.5231 1.5006C20.8472 0.55391 18.9621 0.0389568 17.0377 0.00212511C15.1132 -0.0347066 13.2098 0.40774 11.4989 1.28962C9.7573 2.48472 7.65059 3.02868 5.54809 2.82614C3.4456 2.62361 1.48147 1.6875 0 0.181921C0 1.28962 0.131869 2.0017 0.237363 2.81929C0.30165 4.6599 1.0563 6.40891 2.35126 7.71852C3.64621 9.02814 5.38661 9.80243 7.22639 9.88743C10.1985 10.2612 13.2132 9.69886 15.8506 8.27864C16.1456 8.14858 16.4644 8.08141 16.7868 8.08141C17.1092 8.08141 17.4281 8.14858 17.7231 8.27864C20.7537 9.92076 24.2771 10.408 27.6396 9.65007C29.5543 9.18036 31.2078 7.97721 32.2438 6.29989C33.2798 4.62258 33.6153 2.60539 33.1781 0.683022C31.748 1.98873 29.9222 2.77853 27.9914 2.92669C26.0606 3.07484 24.1357 2.57285 22.5231 1.5006Z" fill="#D20000"/>
</svg>
