<svg width="168" height="331" viewBox="0 0 168 331" fill="none" xmlns="http://www.w3.org/2000/svg">
<path d="M101.306 163.804V176.698C101.307 181.031 99.6028 185.193 96.5584 188.291C93.5141 191.39 89.3715 193.179 85.018 193.275C82.7552 193.275 80.5147 192.83 78.4257 191.964C76.3367 191.099 74.4404 189.831 72.8461 188.233C71.2518 186.635 69.991 184.738 69.1363 182.653C68.2817 180.568 67.85 178.335 67.8663 176.084V163.804C49.867 163.804 32.605 170.919 19.8776 183.585C7.1502 196.252 0 213.43 0 231.343V296.733C0 302.4 2.26208 307.835 6.28856 311.842C10.3151 315.849 15.7761 318.1 21.4705 318.1L29.1825 315.153C29.031 313.537 29.3523 311.912 30.1076 310.474C30.8629 309.036 32.0201 307.846 33.4396 307.048L39.6093 303.303L40.473 302.812C41.6634 302.076 43.0221 301.653 44.4216 301.584H44.7918C46.2259 301.557 47.6311 301.987 48.8021 302.812C49.1172 303.024 49.407 303.271 49.6658 303.548C50.5736 300.92 52.3031 298.649 54.6012 297.069C56.8993 295.489 59.6452 294.683 62.437 294.768C63.1532 294.76 63.8647 294.885 64.5347 295.137H65.2751C65.9898 295.145 66.6984 295.269 67.3727 295.505L69.2236 296.18C69.1612 295.835 69.1612 295.482 69.2236 295.137C70.2551 292.481 72.2314 290.296 74.7763 288.997C76.7368 288.06 78.8105 287.379 80.946 286.971C82.4368 286.592 83.974 286.427 85.5115 286.479C86.2837 286.584 87.0338 286.812 87.7326 287.155C88.3495 285.65 89.3129 284.31 90.5453 283.244C91.7777 282.177 93.2446 281.414 94.8278 281.015C95.5672 280.775 96.3343 280.631 97.1105 280.585H98.036C98.5688 280.521 99.1073 280.521 99.6401 280.585H100.134C100.789 280.502 101.452 280.502 102.108 280.585C104.641 281.186 106.99 282.386 108.956 284.085L111.856 283.041C112.514 282.742 113.195 282.495 113.892 282.304L117.1 281.076C118.839 279.999 120.801 279.327 122.838 279.111C124.844 277.747 127.151 276.883 129.563 276.594C130.467 275.957 131.44 275.421 132.463 274.998C133.502 271.926 135.72 269.388 138.632 267.937C140.507 266.855 142.635 266.283 144.802 266.279C147.336 266.292 149.808 267.062 151.897 268.489C154.083 269.976 155.66 272.196 156.339 274.743C157.019 277.29 156.756 279.995 155.599 282.366C154.562 284.619 152.892 286.526 150.79 287.855C148.688 289.185 146.244 289.88 143.753 289.856H142.211C140.56 289.664 138.965 289.142 137.522 288.321C136.46 288.677 135.364 288.923 134.252 289.058L133.45 289.611C131.562 290.705 129.456 291.376 127.28 291.575C125.47 292.897 123.342 293.723 121.111 293.97L118.026 295.137L116.545 295.751C116.256 295.932 115.945 296.076 115.62 296.18L113.522 296.979L111.918 297.593C111.889 297.714 111.889 297.84 111.918 297.961C111.685 298.727 111.375 299.467 110.992 300.171C111.036 300.703 111.036 301.236 110.992 301.768C110.988 303.506 110.366 305.186 109.237 306.511C108.108 307.837 106.544 308.723 104.823 309.013C102.785 309.364 100.721 309.548 98.6529 309.565C96.7629 309.579 94.9207 308.975 93.4087 307.846C92.8583 310.276 91.4861 312.443 89.5218 313.986C88.8937 314.478 88.2343 314.93 87.5475 315.337C86.9472 315.699 86.305 315.988 85.6349 316.197C85.1867 316.47 84.7112 316.696 84.2159 316.872H146.53C152.224 316.872 157.685 314.621 161.711 310.614C165.738 306.607 168 301.172 168 295.505V231.404C168.019 213.681 161.037 196.661 148.56 184.015C136.084 171.369 119.112 164.11 101.306 163.804ZM25.4807 234.597H22.6427V230.974H25.4807V234.597ZM25.4807 229.685H22.6427V214.949H25.4807V229.685ZM25.4807 213.783H22.6427V210.222H25.4807V213.783ZM30.7249 234.597H27.8252V230.974H30.7249V234.597ZM30.7249 229.685H27.8252V214.949H30.7249V229.685ZM30.7249 213.783H27.8252V210.222H30.7249V213.783ZM35.7841 234.597H32.946V230.974H35.7841V234.597ZM35.7841 229.685H32.946V214.949H35.7841V229.685ZM35.7841 213.783H32.946V210.222H35.7841V213.783ZM41.0283 234.597H38.1902V230.974H41.0283V234.597ZM41.0283 229.685H38.1902V214.949H41.0283V229.685ZM41.0283 213.783H38.1902V210.222H41.0283V213.783ZM46.1491 234.597H43.2494V230.974H46.1491V234.597ZM46.1491 229.685H43.2494V214.949H46.1491V229.685ZM46.1491 213.783H43.2494V210.222H46.1491V213.783ZM84.5861 204.082C85.4891 204.082 86.3718 204.348 87.1226 204.847C87.8734 205.347 88.4586 206.056 88.8041 206.886C89.1497 207.717 89.2401 208.63 89.0639 209.512C88.8878 210.393 88.4529 211.202 87.8144 211.838C87.1759 212.473 86.3624 212.906 85.4768 213.081C84.5912 213.257 83.6732 213.167 82.8389 212.823C82.0047 212.479 81.2917 211.897 80.79 211.149C80.2883 210.402 80.0205 209.524 80.0205 208.625C80.0205 208.028 80.1387 207.438 80.3681 206.886C80.5975 206.335 80.9338 205.834 81.3578 205.412C81.7817 204.99 82.285 204.656 82.8389 204.427C83.3929 204.199 83.9866 204.082 84.5861 204.082ZM84.5861 222.501C85.4891 222.501 86.3718 222.768 87.1226 223.267C87.8734 223.766 88.4586 224.476 88.8041 225.306C89.1497 226.136 89.2401 227.05 89.0639 227.931C88.8878 228.813 88.4529 229.622 87.8144 230.258C87.1759 230.893 86.3624 231.326 85.4768 231.501C84.5912 231.676 83.6732 231.586 82.8389 231.243C82.0047 230.899 81.2917 230.316 80.79 229.569C80.2883 228.822 80.0205 227.944 80.0205 227.045C80.0205 226.448 80.1387 225.857 80.3681 225.306C80.5975 224.755 80.9338 224.254 81.3578 223.832C81.7817 223.41 82.285 223.076 82.8389 222.847C83.3929 222.619 83.9866 222.501 84.5861 222.501ZM84.5861 240.921C85.4891 240.921 86.3718 241.188 87.1226 241.687C87.8734 242.186 88.4586 242.896 88.8041 243.726C89.1497 244.556 89.2401 245.47 89.0639 246.351C88.8878 247.232 88.4529 248.042 87.8144 248.677C87.1759 249.313 86.3624 249.746 85.4768 249.921C84.5912 250.096 83.6732 250.006 82.8389 249.662C82.0047 249.318 81.2917 248.736 80.79 247.989C80.2883 247.242 80.0205 246.363 80.0205 245.465C80.0205 244.868 80.1387 244.277 80.3681 243.726C80.5975 243.175 80.9338 242.674 81.3578 242.252C81.7817 241.83 82.285 241.495 82.8389 241.267C83.3929 241.039 83.9866 240.921 84.5861 240.921ZM84.5861 259.341C85.4891 259.341 86.3718 259.607 87.1226 260.107C87.8734 260.606 88.4586 261.315 88.8041 262.146C89.1497 262.976 89.2401 263.889 89.0639 264.771C88.8878 265.652 88.4529 266.462 87.8144 267.097C87.1759 267.733 86.3624 268.165 85.4768 268.341C84.5912 268.516 83.6732 268.426 82.8389 268.082C82.0047 267.738 81.2917 267.156 80.79 266.409C80.2883 265.661 80.0205 264.783 80.0205 263.884C80.0205 263.288 80.1387 262.697 80.3681 262.146C80.5975 261.594 80.9338 261.094 81.3578 260.672C81.7817 260.25 82.285 259.915 82.8389 259.687C83.3929 259.458 83.9866 259.341 84.5861 259.341ZM125.923 234.781H123.085V231.159H125.923V234.781ZM125.923 229.869H123.085V214.949H125.923V229.869ZM125.923 213.967H123.085V210.406H125.923V213.967ZM131.167 234.781H128.267V231.159H131.167V234.781ZM131.167 229.869H128.267V214.949H131.167V229.869ZM131.167 213.967H128.267V210.406H131.167V213.967ZM136.226 234.781H133.141V231.159H135.979L136.226 234.781ZM136.226 229.869H133.141V214.949H135.979L136.226 229.869ZM136.226 213.967H133.141V210.406H135.979L136.226 213.967ZM141.47 234.781H138.571V231.159H141.47V234.781ZM141.47 229.869H138.571V214.949H141.47V229.869ZM141.47 213.967H138.571V210.406H141.47V213.967ZM146.53 234.781H143.691V231.159H146.53V234.781ZM146.53 229.869H143.691V214.949H146.53V229.869ZM146.53 213.967H143.691V210.406H146.53V213.967Z" fill="#2E2E2E"/>
<path d="M98.2211 132.367C94.3006 130.163 89.8908 128.965 85.3888 128.879C80.8869 128.793 76.4342 129.823 72.4319 131.876C68.3576 134.658 63.4294 135.925 58.5109 135.453C53.5925 134.982 48.9978 132.802 45.5321 129.297C45.5321 131.876 45.8406 133.534 46.0874 135.437C46.2378 139.722 48.0032 143.794 51.0325 146.843C54.0618 149.892 58.1332 151.694 62.437 151.892C69.3897 152.763 76.442 151.453 82.6118 148.147C83.3019 147.844 84.0479 147.688 84.8021 147.688C85.5563 147.688 86.3022 147.844 86.9923 148.147C94.0819 151.97 102.324 153.104 110.19 151.34C114.669 150.246 118.537 147.445 120.961 143.54C123.384 139.635 124.169 134.939 123.147 130.464C119.801 133.504 115.53 135.342 111.013 135.687C106.496 136.032 101.993 134.864 98.2211 132.367Z" fill="#2E2E2E"/>
<path d="M20.7917 62.2492C18.694 66.0559 19.0642 67.8979 23.0128 70.5381C22.1643 71.3389 21.4977 72.311 21.0575 73.3891C20.6173 74.4673 20.4138 75.6266 20.4605 76.7894C20.5072 77.9522 20.8032 79.0917 21.3285 80.1314C21.8538 81.1711 22.5963 82.0871 23.5063 82.8179C22.0876 85.7988 21.0113 88.9295 20.2981 92.1506C20.2043 92.9865 20.2841 93.8327 20.5326 94.6367C20.781 95.4406 21.1928 96.1852 21.7423 96.8242C22.2919 97.4633 22.9676 97.9831 23.7274 98.3515C24.4872 98.7199 25.3149 98.929 26.1593 98.9659C23.6297 105.106 23.9999 109.097 27.3932 111.676C27.8102 112.09 28.3166 112.405 28.8739 112.597C30.0454 113.205 31.3471 113.522 32.6683 113.522C33.9895 113.522 35.2912 113.205 36.4627 112.597H41.8303C42.4 113.507 43.1774 114.27 44.0993 114.825C45.0213 115.38 46.0617 115.71 47.1362 115.789C48.5269 115.877 49.9184 115.632 51.1953 115.077C52.4722 114.522 53.5976 113.671 54.4781 112.597C56.9459 113.456 59.1053 115.052 60.6477 114.807C62.3664 114.456 63.9748 113.697 65.3367 112.597H67.2493C70.5809 118.245 75.4549 118.368 80.8842 112.597H81.3778C82.2277 114.063 83.4506 115.281 84.9235 116.127C86.3965 116.974 88.0675 117.42 89.7685 117.42C91.4696 117.42 93.1406 116.974 94.6135 116.127C96.0865 115.281 97.3094 114.063 98.1593 112.597H101.182C102.039 113.866 103.21 114.895 104.583 115.583C105.955 116.271 107.483 116.596 109.018 116.526C110.426 116.506 111.808 116.136 113.036 115.45C114.264 114.764 115.301 113.783 116.051 112.597H121.296C122.462 113.304 123.778 113.728 125.14 113.834C126.501 113.941 127.868 113.727 129.131 113.211C129.51 113.1 129.852 112.887 130.118 112.597C131.685 111.754 132.943 110.438 133.708 108.837C134.473 107.237 134.707 105.435 134.375 103.694C136.197 104.489 138.23 104.671 140.165 104.211C142.101 103.751 143.832 102.675 145.096 101.146C146.36 99.617 147.088 97.7189 147.168 95.7405C147.249 93.7621 146.678 91.8116 145.542 90.1858C150.663 85.5809 151.033 83.4933 147.393 77.292C151.28 73.1168 151.403 71.1521 148.01 65.6875C152.144 62.0036 152.144 59.5476 148.01 55.4339C150.231 51.4429 149.861 49.2939 145.912 47.0222C146.752 46.2163 147.41 45.2428 147.845 44.1656C148.279 43.0884 148.48 41.9319 148.433 40.7721C148.387 39.6123 148.094 38.4754 147.574 37.4362C147.055 36.397 146.32 35.4789 145.419 34.7423C146.84 31.7838 147.917 28.6732 148.627 25.471C148.748 24.6498 148.7 23.8127 148.487 23.0103C148.274 22.2079 147.899 21.4569 147.386 20.8027C146.873 20.1484 146.231 19.6045 145.501 19.2039C144.77 18.8032 143.966 18.5541 143.136 18.4715C145.604 12.3316 145.234 8.34067 141.717 5.7619C138.2 3.18313 134.067 3.49013 128.822 7.41968C128.387 5.91688 127.517 4.57453 126.322 3.55936C125.126 2.5442 123.657 1.90096 122.098 1.70955C120.682 1.61464 119.264 1.86087 117.965 2.42736C116.665 2.99386 115.522 3.8639 114.632 4.96371C112.288 4.10412 110.19 2.44634 108.463 2.69194C106.735 2.93754 104.514 4.71811 102.293 5.8233C98.5911 -0.746416 93.6554 -1.11481 87.7943 5.20931C86.8812 3.48587 85.4708 2.07374 83.7445 1.15461C82.0183 0.235483 80.0553 -0.148602 78.1079 0.051774C76.112 0.338637 74.2416 1.192 72.7206 2.50964C71.1996 3.82728 70.0926 5.55334 69.532 7.48108C68.7202 5.63607 67.3803 4.06987 65.6797 2.97795C63.979 1.88603 61.9928 1.31675 59.9691 1.34116C58.0019 1.41431 56.1038 2.08221 54.5276 3.2559C52.9514 4.42959 51.772 6.05334 51.1464 7.91087C49.8751 6.1996 48.0917 4.93317 46.0522 4.29337C44.0126 3.65357 41.8218 3.67329 39.7943 4.34972C37.9379 5.08198 36.3912 6.42752 35.4138 8.16044C34.4364 9.89337 34.0879 11.9082 34.4267 13.8666C32.6067 13.0698 30.5763 12.8817 28.6399 13.3304C26.7035 13.7792 24.9654 14.8406 23.6865 16.3556C22.4075 17.8705 21.6565 19.7572 21.5462 21.7328C21.4358 23.7084 21.9721 25.6664 23.0745 27.313C18.1387 31.918 17.7686 34.0055 21.347 40.2069C17.5218 44.382 17.3984 46.3468 20.6066 51.8113C16.8431 55.3111 16.8431 58.0126 20.7917 62.2492Z" fill="#2E2E2E"/>
<path d="M73.7892 304.224C73.7892 303.855 73.7892 303.794 73.2339 304.224L72.0616 304.653C72.0616 304.653 71.7532 304.653 71.6915 304.653C71.9917 305.718 72.1982 306.807 72.3084 307.908C72.3084 307.908 72.3084 308.337 72.8637 307.908L74.4678 307.294C74.838 307.294 74.838 306.925 74.4678 306.618C74.0976 306.311 74.0976 305.206 73.7892 304.224Z" fill="#2E2E2E"/>
<path d="M110.375 289.795L108.895 290.347C108.339 290.347 108.216 290.777 108.401 291.33C108.733 292.173 108.921 293.065 108.956 293.97C108.956 294.522 108.956 294.707 109.82 294.461L111.794 293.663H112.288C112.288 293.663 112.658 293.663 112.782 293.663L114.817 292.926L115.681 292.496C116.808 292.161 117.871 291.642 118.828 290.961C119.314 290.605 119.891 290.392 120.494 290.347C122.378 290.203 124.17 289.473 125.614 288.26C126.026 287.963 126.526 287.812 127.033 287.83C128.563 287.698 130.042 287.214 131.352 286.418C132.031 285.988 132.648 285.313 133.573 285.313C135.04 285.187 136.467 284.77 137.769 284.085C138.016 283.895 138.32 283.793 138.632 283.793C138.945 283.793 139.248 283.895 139.496 284.085C140.586 285.028 141.945 285.608 143.383 285.742C145.086 285.984 146.821 285.657 148.317 284.813C149.813 283.969 150.985 282.654 151.65 281.076C152.249 279.805 152.391 278.368 152.055 277.005C151.718 275.642 150.922 274.435 149.799 273.585C148.621 272.752 147.226 272.274 145.782 272.209C144.338 272.144 142.905 272.494 141.656 273.217C140.641 273.689 139.757 274.4 139.08 275.288C138.403 276.176 137.953 277.214 137.769 278.313C137.769 279.357 137.213 279.971 136.165 280.216C134.933 280.506 133.777 281.049 132.771 281.813C132.604 281.987 132.403 282.126 132.18 282.221C131.958 282.316 131.718 282.365 131.476 282.365C129.448 282.503 127.511 283.253 125.923 284.514C125.535 284.811 125.055 284.963 124.566 284.944C123.058 285.047 121.597 285.51 120.308 286.295C119.454 286.979 118.432 287.424 117.347 287.584C116.329 287.608 115.333 287.882 114.447 288.383L110.375 289.795ZM141.224 277.147C141.889 276.424 142.745 275.903 143.695 275.642C144.644 275.382 145.648 275.392 146.591 275.673C147.245 275.921 147.801 276.371 148.178 276.956C148.556 277.542 148.735 278.233 148.689 278.927C148.545 279.622 148.248 280.277 147.818 280.843C147.389 281.41 146.839 281.874 146.207 282.204C145.575 282.533 144.878 282.718 144.166 282.746C143.453 282.774 142.743 282.644 142.087 282.365C141.59 282.172 141.151 281.856 140.81 281.447C140.47 281.038 140.239 280.55 140.141 280.028C140.042 279.506 140.078 278.968 140.246 278.464C140.414 277.96 140.708 277.506 141.1 277.147H141.224Z" fill="#2E2E2E"/>
<path d="M108.031 297.715C108.308 296.606 108.308 295.447 108.031 294.338C107.875 292.778 107.436 291.26 106.735 289.856C106.057 288.901 105.196 288.088 104.2 287.466C103.205 286.845 102.095 286.426 100.935 286.234C99.9483 286.234 99.825 286.234 99.5782 287.155C99.5489 287.584 99.5489 288.015 99.5782 288.444V286.848C99.5782 286.234 99.5782 285.927 98.591 285.988C98.0373 285.929 97.4789 285.929 96.9252 285.988C96.0726 286.162 95.2744 286.537 94.5979 287.082C93.9215 287.627 93.3866 288.326 93.0383 289.119C92.5677 290.467 92.2773 291.871 92.1746 293.294C92.0273 294.133 92.1166 294.996 92.4324 295.787C92.7483 296.578 93.2784 297.267 93.9638 297.777C94.8648 298.437 95.5686 299.328 95.9998 300.355C96.3699 301.215 96.555 302.136 96.9252 302.996C97.1751 303.701 97.6454 304.308 98.2671 304.728C98.8889 305.147 99.6294 305.358 100.38 305.329C102.158 305.29 103.931 305.126 105.686 304.837C106.221 304.778 106.716 304.527 107.079 304.132C107.442 303.737 107.649 303.224 107.66 302.689C107.562 302.099 107.396 301.522 107.167 300.969C107.167 300.171 106.365 300.048 105.686 299.864H106.056C106.544 299.707 106.983 299.426 107.329 299.049C107.675 298.673 107.917 298.213 108.031 297.715Z" fill="#2E2E2E"/>
<path d="M86.0668 312.267C86.5637 311.975 87.0381 311.646 87.4859 311.284C88.5972 310.492 89.3628 309.307 89.6265 307.972C89.8902 306.638 89.6321 305.253 88.9049 304.101C88.7863 303.909 88.7201 303.69 88.7129 303.465C88.7057 303.241 88.7576 303.018 88.8637 302.819C88.9697 302.621 89.1261 302.453 89.3173 302.333C89.5085 302.213 89.7279 302.145 89.9537 302.136L93.6555 300.662C94.6427 300.355 94.7044 299.987 93.6555 299.312C92.8875 298.731 92.2026 298.05 91.6195 297.285C91.5377 297.23 91.4409 297.2 91.3419 297.2C91.2429 297.2 91.1461 297.23 91.0643 297.285L89.5219 297.838L86.0668 299.189C85.9799 298.598 85.9799 297.998 86.0668 297.408C86.1901 296.518 86.4393 295.65 86.8072 294.829C87.3625 292.926 86.8072 291.698 84.5861 291.698H83.7841C81.6318 292.006 79.5465 292.67 77.6144 293.663C76.0632 294.399 74.8505 295.694 74.2211 297.285C74.2211 297.961 74.2211 298.206 74.7764 298.513L75.8869 298.943C75.6474 299.027 75.3861 299.027 75.1465 298.943C73.9126 298.943 73.7892 298.943 73.9743 300.294C74.1996 301.754 74.5505 303.192 75.0232 304.592C75.718 306.884 76.5842 309.121 77.6144 311.284C77.9034 311.932 78.3465 312.499 78.9056 312.938C79.4646 313.377 80.1226 313.673 80.8226 313.802C81.7594 313.882 82.7028 313.778 83.599 313.495C84.2776 313.495 84.6478 313.004 84.5861 312.267C84.5551 311.94 84.5551 311.611 84.5861 311.284C84.5861 311.284 84.5861 311.284 84.5861 311.653C84.5861 312.021 85.2031 312.758 86.0668 312.267Z" fill="#2E2E2E"/>
<path d="M57.1309 313.618C56.3113 312.966 55.5477 312.247 54.8481 311.469C54.7465 311.447 54.6413 311.447 54.5396 311.469C54.5396 311.469 54.5397 311.469 54.1695 311.469L51.5782 312.451C51.1463 312.451 51.5782 312.881 51.5782 313.065C52.4497 313.696 53.1667 314.515 53.6759 315.46C53.6759 315.828 54.1078 315.89 54.478 315.46L57.0692 314.539C57.6245 314.232 57.6862 314.048 57.1309 313.618Z" fill="#2E2E2E"/>
<path d="M69.0384 302.136C68.0827 301.339 66.9682 300.754 65.7685 300.417C64.843 300.417 64.5345 300.417 64.2877 301.215C64.0409 302.013 63.8559 302.996 63.6708 303.855C63.612 302.845 63.4884 301.841 63.3006 300.847C63.3006 300.355 63.3006 299.987 62.4368 299.987C60.7341 299.909 59.0506 300.373 57.6306 301.311C56.2106 302.25 55.1279 303.614 54.5397 305.206C54.2465 306.094 54.1608 307.036 54.2891 307.962C54.4174 308.888 54.7563 309.772 55.28 310.548C56.2454 311.713 57.3427 312.764 58.5499 313.679C59.4137 314.539 59.4137 314.539 60.5242 313.986C60.5242 313.986 60.5242 314.416 60.154 314.6C59.9995 314.71 59.8777 314.859 59.8017 315.032C59.7256 315.205 59.6981 315.395 59.7222 315.582C59.7222 316.688 60.0924 317.731 60.3392 318.775C60.3669 319.045 60.4522 319.305 60.5893 319.539C60.7263 319.773 60.912 319.976 61.134 320.133C61.3559 320.29 61.609 320.398 61.8762 320.449C62.1435 320.501 62.4187 320.496 62.6836 320.433C64.0034 320.312 65.295 319.98 66.5088 319.451C67.8397 318.974 69.0087 318.133 69.8816 317.026C70.7546 315.918 71.2963 314.588 71.4445 313.188C71.8776 310.715 71.7512 308.177 71.0744 305.759C70.8112 304.362 70.0961 303.09 69.0384 302.136Z" fill="#2E2E2E"/>
<path d="M50.653 313.188L48.7404 311.837C48.0618 311.285 47.9384 311.285 47.2597 311.837C46.6755 312.376 46.0342 312.849 45.3471 313.249C45.9754 312.508 46.4947 311.681 46.8895 310.793C47.1035 310.16 47.124 309.478 46.9482 308.833C46.7725 308.188 46.4086 307.61 45.9024 307.171C45.5427 306.922 45.1037 306.812 44.6684 306.864C44.0984 306.877 43.5432 307.047 43.0643 307.355L36.1543 311.53C35.4569 311.84 34.8935 312.388 34.5655 313.074C34.2375 313.761 34.1665 314.542 34.3651 315.276C34.4435 315.744 34.589 316.199 34.797 316.626C35.4163 317.786 36.0958 318.914 36.833 320.003C37.1516 320.599 37.3183 321.263 37.3183 321.937C37.3183 322.612 37.1516 323.276 36.833 323.871C36.4252 324.563 36.1139 325.307 35.9075 326.082C35.7883 326.534 35.8201 327.012 35.9982 327.444C36.1763 327.876 36.491 328.238 36.8947 328.476C37.5751 328.882 38.3534 329.097 39.1466 329.097C39.9398 329.097 40.7182 328.882 41.3985 328.476C42.2522 327.909 43.0571 327.273 43.8047 326.573C44.2366 326.205 44.6684 325.959 44.4834 325.284C44.9062 325.408 45.3562 325.408 45.779 325.284C46.6469 325.014 47.5337 324.809 48.4319 324.67C49.96 324.443 51.347 323.654 52.3188 322.459C52.8982 321.771 53.3188 320.964 53.5509 320.096C53.783 319.228 53.821 318.32 53.6621 317.436C53.5033 316.552 53.1515 315.714 52.6316 314.98C52.1117 314.246 51.4363 313.634 50.653 313.188Z" fill="#2E2E2E"/>
<path d="M36.4627 321.599C36.1904 320.699 35.7737 319.849 35.2287 319.082C34.9203 318.59 34.6118 318.529 34.0565 318.713L20.9768 323.687C19.0025 324.423 16.9665 325.099 14.8072 326.02C12.4699 327.321 10.2232 328.778 8.08222 330.379C8.08222 330.379 7.71204 330.379 8.08222 330.809C8.4524 331.239 8.5141 330.809 8.76089 330.809L13.1413 330.134C14.5022 330.042 15.8478 329.795 17.1516 329.397L24.6786 326.511L25.7891 326.081L29.3059 324.792H29.676L32.946 323.502H33.2545H33.9331L35.2287 323.011H35.8457C36.0339 323.093 36.2469 323.096 36.4378 323.022C36.6287 322.947 36.7819 322.799 36.8637 322.612C36.9455 322.425 36.9492 322.213 36.874 322.023C36.7988 321.833 36.6509 321.68 36.4627 321.599Z" fill="#2E2E2E"/>
</svg>
