<svg width="63" height="64" viewBox="0 0 63 64" fill="none" xmlns="http://www.w3.org/2000/svg">
<g clip-path="url(#clip0_295_2047)">
<path d="M36.1434 8.34042C36.1434 8.34042 37.4643 7.79022 37.9039 9.33206C38.3434 10.8739 36.9159 11.8634 31.961 11.9722C27.0062 12.0809 29.983 10.9827 31.961 10.8718C33.9391 10.7609 36.3632 10.7843 36.3632 10.1126C36.3632 9.44082 35.149 8.34682 36.1434 8.34042Z" fill="#F16E20"/>
<path d="M40.3301 11.9679C40.3301 11.9679 42.6197 11.4177 43.3815 12.9595C44.1433 14.5013 41.6744 15.4908 33.0898 15.6017C24.5053 15.7126 29.665 14.6101 33.0898 14.4992C36.5147 14.3883 40.712 14.4118 40.712 13.74C40.712 13.0683 38.623 11.9743 40.3301 11.9679Z" fill="#F16E20"/>
<path d="M33.8047 5.10106C33.8047 5.10106 34.5878 4.77265 34.8503 5.68751C35.1127 6.60237 34.2656 7.1803 31.323 7.25494C28.3804 7.32957 30.1494 6.66848 31.323 6.60237C32.4966 6.53627 33.9284 6.55119 33.9284 6.15241C33.9284 5.75362 33.2136 5.10319 33.8047 5.10106Z" fill="#F16E20"/>
<path d="M47.487 27.2711C47.487 27.2711 50.2397 28.4547 51.8913 30.4358C53.5429 32.417 53.385 33.447 52.6766 32.9544C51.9681 32.4617 51.025 30.9732 50.5705 30.4785C50.1159 29.9837 47.0048 28.331 47.487 27.51" fill="#F16E20"/>
<path d="M45.4065 27.8916C45.4065 27.8916 48.1613 29.0752 49.813 31.0563C51.4646 33.0375 51.3067 34.0675 50.5982 33.5727C49.8898 33.078 48.9466 31.5916 48.4921 31.0968C48.0376 30.6021 44.9264 28.9515 45.4065 28.1241" fill="#F16E20"/>
<path d="M43.565 28.2435C43.565 28.2435 46.3177 29.4271 47.9693 31.4082C49.6209 33.3894 49.463 34.4194 48.7546 33.9246C48.0461 33.4299 47.103 31.9435 46.6485 31.4488C46.1939 30.954 43.0828 29.3034 43.565 28.476" fill="#F16E20"/>
<path d="M52.747 40.4417C52.747 40.4417 52.9455 43.4272 51.9297 45.8008C50.914 48.1743 49.9218 48.4942 50.0434 47.6433C50.165 46.7924 51.057 45.274 51.2917 44.6428C51.5264 44.0115 51.5841 40.4928 52.54 40.5483" fill="#F16E20"/>
<path d="M51.2512 40.028C51.2512 40.028 51.4475 43.0135 50.4339 45.3871C49.4203 47.7606 48.4238 48.0805 48.5454 47.2296C48.6671 46.3787 49.5612 44.8603 49.7959 44.2291C50.0306 43.5978 50.0882 40.0813 51.0421 40.1346" fill="#F16E20"/>
<path d="M49.5804 39.1387C49.5804 39.1387 49.7767 42.1242 48.761 44.4999C47.7453 46.8756 46.753 47.1912 46.8746 46.3424C46.9963 45.4937 47.8904 43.971 48.1251 43.3419C48.3598 42.7128 48.4174 39.192 49.3713 39.2453" fill="#F16E20"/>
<path d="M59.6566 45.1718C55.3611 43.3548 54.2045 46.0781 54.2045 46.0781C54.2045 46.0781 54.2877 43.6854 55.3611 39.1111C56.4344 34.5367 55.3611 31.3848 53.6262 28.7426C51.8914 26.1004 48.4217 23.7076 48.4217 23.7076C48.4217 23.7076 50.4041 22.057 50.5705 19.7454C50.737 17.4337 48.505 17.3505 48.505 17.3505C48.505 17.3505 49.8258 16.1968 49.9987 15.5357C50.1715 14.8746 50.2462 13.9661 48.4281 13.0598C46.6101 12.1535 45.4557 13.0598 45.4557 13.0598C45.4557 13.0598 44.7109 11.1597 43.6376 10.4176C42.5643 9.67545 40.2512 9.09753 40.2512 9.09753C40.2512 9.09753 39.5897 7.36377 38.1045 6.70267C37.2582 6.31929 36.3781 6.01517 35.4756 5.79421C35.3604 5.22249 35.3553 4.63406 35.4606 4.06044C35.6249 2.99417 34.3937 -1.22189 29.8443 0.345539C25.2949 1.91296 26.7801 6.20792 26.7801 6.20792C21.8252 6.04158 21.9895 9.09753 21.9895 9.09753C20.8058 9.24257 19.642 9.51939 18.5199 9.92283C16.7039 10.5818 17.199 12.5629 17.199 12.5629C17.199 12.5629 12.9035 11.6566 12.1609 14.0557C11.9311 14.6838 11.9384 15.3742 12.1816 15.9973C12.4248 16.6204 12.8871 17.1334 13.4818 17.4401C13.4818 17.4401 11.5827 18.4317 11.747 20.4939C11.9113 22.5561 13.8126 23.2193 13.8126 23.2193C13.8126 23.2193 9.51708 24.5244 6.62569 29.0028C3.7343 33.4811 6.79213 34.2851 6.79213 34.2851C6.79213 34.2851 6.37816 34.3683 6.54461 38.0832C6.68391 40.486 7.1248 42.8618 7.85693 45.1547C7.72677 45.1014 7.18263 44.9415 5.22161 44.4808C2.08269 43.7174 -0.230422 46.4897 0.0192407 50.2067C0.268903 53.9238 1.83516 57.1525 8.5355 58.2187C15.2358 59.285 17.1243 61.1894 19.1899 62.0978C21.2555 63.0063 22.5763 63.8316 32.0763 63.9958C41.5763 64.16 43.723 61.8505 46.1193 60.0335C48.5156 58.2166 50.7434 57.8882 57.5163 57.3103C64.2892 56.7323 63.952 46.9866 59.6566 45.1718ZM53.543 42.2822C53.1333 45.0886 53.1333 47.9825 49.2518 49.4753C45.3703 50.968 35.2088 52.6741 33.3886 52.93C31.5685 53.1859 31.6538 50.7015 31.8821 48.5561C32.1105 46.4108 31.9611 41.2095 31.9611 41.2095C31.9376 40.1304 31.8203 39.8873 37.8506 39.7167C43.8809 39.5461 50.5727 37.7462 52.8837 36.4262C55.1946 35.1061 53.957 39.4757 53.543 42.2822ZM53.7927 30.9796C54.7828 32.6302 54.2045 34.1977 51.3964 35.5198C48.5882 36.842 38.0981 38.4073 34.6284 38.3263C31.1588 38.2452 31.9611 36.0978 31.9611 36.0978V27.8363C31.9611 26.77 32.7293 26.8446 32.7293 26.8446C35.0308 27.1383 37.3586 27.1662 39.6665 26.9278C43.2194 26.5141 45.5325 25.0277 47.4316 25.1109C49.3308 25.194 52.8004 29.3205 53.7927 30.9732V30.9796ZM49.2475 20.0823C49.2475 21.0718 49.525 22.4729 44.7045 24.2088C41.1054 25.4795 37.2691 25.9369 33.4719 25.548C31.6538 25.3199 31.9782 24.4583 31.9782 24.4583V21.3256C31.9782 19.3444 33.4719 20.4982 36.1904 20.5813C38.909 20.6645 43.8723 20.1697 46.0211 18.7687C48.1699 17.3676 49.2475 19.0843 49.2475 20.0759V20.0823ZM13.2001 20.737C13.2001 18.581 13.7293 18.4253 15.2166 18.758C16.7039 19.0907 18.3513 19.6622 18.3513 19.6622C18.187 20.3233 19.7554 21.7265 20.7476 22.0826C21.7399 22.4388 22.73 20.818 22.8111 20.1633C22.8922 19.5086 25.6214 19.7496 28.182 20.0802C30.7427 20.4107 30.0812 21.8139 29.9979 23.4645C29.9147 25.1151 28.931 25.032 28.931 25.032C28.931 25.032 27.9388 26.1878 22.0749 25.032C16.211 23.8761 13.198 22.893 13.2001 20.737ZM29.3898 37.9062C27.8555 37.9893 18.5199 37.5756 13.6482 36.0082L8.7745 34.4386C8.7745 34.4386 13.3986 32.4575 14.9627 29.7342C16.5268 27.011 15.8717 25.5416 15.8717 25.5416C15.8717 25.5416 18.1848 26.6079 23.4704 26.6079C28.756 26.6079 30.1324 26.6079 30.1324 28.1007V36.6032C30.1324 36.6032 30.924 37.823 29.3898 37.9062ZM29.0206 52.93C27.1193 52.93 19.6039 51.9405 15.3916 50.5373C11.1794 49.1341 10.599 48.7203 9.4424 46.2444C8.28584 43.7686 7.13569 35.5518 9.4424 36.5029C13.3279 38.2282 17.4488 39.3659 21.6695 39.8788C28.5981 40.7041 28.9417 39.8788 29.3898 40.5399C29.8379 41.201 30.111 47.8865 30.1388 49.7845C30.1665 51.6824 30.9112 52.93 29.0206 52.93ZM12.5728 30.069C10.5904 31.4723 8.7745 32.9586 8.7745 32.9586C8.7745 32.9586 8.05325 29.7108 13.8126 25.5459C13.8126 25.5416 14.5551 28.6616 12.5728 30.069ZM6.87322 33.366C6.87322 33.366 5.88311 29.8046 10.8379 25.6888C11.3712 25.3167 12.0056 25.1165 12.656 25.1151C13.7229 25.1151 10.9212 25.8615 8.7745 28.7405C6.62783 31.6194 6.87322 33.366 6.87322 33.366ZM6.29068 55.3995C3.15176 53.9963 1.61751 52.7167 2.98745 49.0488C4.35739 45.3808 7.52192 46.8181 8.10873 48.7182C8.69554 50.6183 8.5355 52.2582 6.95644 51.7251C5.37738 51.192 6.50833 47.9569 4.44488 50.115C2.38143 52.2732 5.62918 54.5017 7.61154 54.0069C9.5939 53.5122 10.5029 51.3668 10.5029 51.3668C10.5029 51.3668 12.0713 54.5017 12.8971 55.4933C13.7229 56.485 13.7208 56.8965 13.7208 56.8965C13.7208 56.8965 9.42746 56.8027 6.29068 55.3995ZM27.7723 62.5073C24.7977 62.1767 20.4211 61.3514 16.9515 57.8839C13.4818 54.4164 10.5904 49.9594 12.7392 51.4457C12.7392 51.4457 21.3302 54.0048 25.79 54.0048C30.2497 54.0048 30.111 54.0858 30.1388 55.5722C30.1665 57.0586 30.3394 61.682 30.3394 61.682C30.3394 61.682 30.7469 62.8378 27.7723 62.5073ZM14.5551 16.5252C12.0286 15.4461 13.565 13.9661 14.8859 13.9661C16.2068 13.9661 17.199 14.0493 17.199 14.0493C17.199 14.0493 17.1158 12.4819 19.3478 11.326C20.7334 10.624 22.2551 10.2311 23.8076 10.1745C23.8076 10.1745 22.4035 8.43644 24.1383 7.61541C25.8732 6.79437 28.4338 6.95432 28.4338 6.95432C28.4338 6.95432 26.1207 3.98367 28.4338 2.41411C30.7469 0.844556 31.9013 1.91936 33.1411 2.41411C34.3809 2.90887 33.1411 6.95432 33.1411 6.95432C34.5624 6.89995 35.9835 7.06686 37.3534 7.44907C39.6836 8.08883 38.9239 10.8334 38.9239 10.8334C38.9239 10.8334 40.328 9.67758 42.3103 10.8334C42.8806 11.1519 43.3752 11.5899 43.7601 12.1174C44.145 12.6449 44.4111 13.2494 44.5402 13.8894C45.516 13.6397 46.5391 13.6397 47.5148 13.8894C49.1665 14.301 48.7525 16.1179 48.0099 16.6958C47.2673 17.2737 42.6411 18.8369 30.7469 18.7665C18.8527 18.6961 17.0838 17.6043 14.5551 16.5252ZM45.6968 57.4702C39.3144 62.97 35.785 62.6715 33.6362 62.5649C31.4874 62.4582 31.9611 60.5261 31.9611 60.5261L31.7626 55.3249C31.7285 54.41 31.976 54.4164 34.2145 54.4164C36.4529 54.4164 44.9542 53.0132 48.1742 51.5268C51.3942 50.0404 50.4873 53.3437 45.6968 57.4702ZM56.6819 54.8301C53.543 56.2333 49.2518 56.3229 49.2518 56.3229C49.2518 56.3229 49.2518 55.9113 50.0734 54.9197C50.8949 53.928 52.4697 50.7932 52.4697 50.7932C52.4697 50.7932 53.3787 52.9385 55.3611 53.4354C57.3434 53.9323 60.5933 51.6888 58.5277 49.5414C56.4622 47.3939 57.591 50.6268 56.0226 51.16C54.4542 51.6931 54.2877 50.051 54.8703 48.1509C55.4528 46.2508 58.6174 44.8071 59.9916 48.4815C61.3658 52.1559 59.8209 53.4269 56.6819 54.8301Z" fill="#F16E20"/>
</g>
<defs>
<clipPath id="clip0_295_2047">
<rect width="62.7613" height="64" fill="white"/>
</clipPath>
</defs>
</svg>
